<?xml version="1.0" encoding="UTF-8" standalone="no" ?>
<!DOCTYPE svg PUBLIC "-//W3C//DTD SVG 1.1//EN" "http://www.w3.org/Graphics/SVG/1.1/DTD/svg11.dtd">
<svg xmlns="http://www.w3.org/2000/svg" version="1.1" width="1636.7074" height="1070" viewBox="0 0 1636.7074 1070"
	 xml:space="preserve">
<desc>Created with Fabric.js 5.3.0</desc>
<defs>
</defs>
<g transform="matrix(0 1 1 0 413.324215 815.2144702842)" id="1pzMuQ2MxVkbK8SuwEGzw"  >
<g style="">
		<g transform="matrix(1 0 0 1 33.7106732793 -408.0129021519)" id="j5vdZBdXiyUIxW3stDToJ"  >
<path style="stroke: rgb(255,255,255); stroke-width: 1; stroke-dasharray: none; stroke-linecap: butt; stroke-dashoffset: 0; stroke-linejoin: miter; stroke-miterlimit: 4; fill: rgb(255,255,255); fill-opacity: 0; fill-rule: nonzero; opacity: 1;" vector-effect="non-scaling-stroke"  transform=" translate(0, 0)" d="M 0 0" stroke-linecap="round" />
</g>
		<g transform="matrix(0.9284710147 0 0 0.9284710029 -44.3716957764 -218.7491890575)" id="TDFPtszz5Qqv_uoLvCET2"  >
<path style="stroke: rgb(255,255,255); stroke-width: 3; stroke-dasharray: none; stroke-linecap: butt; stroke-dashoffset: 0; stroke-linejoin: miter; stroke-miterlimit: 4; fill: rgb(255,255,255); fill-opacity: 0; fill-rule: nonzero; opacity: 1;" vector-effect="non-scaling-stroke"  transform=" translate(-0.0003550907, 0)" d="M 43.7 -199.01 C 43.7 -199.01 -168.16000000000003 25.5 48.93000000000001 199.01" stroke-linecap="round" />
</g>
		<g transform="matrix(-0.9284710147 0 0 0.9284710029 39.2103486678 -218.7491890575)" id="6dJN-0DF7bNAFwWnaQ0eT"  >
<path style="stroke: rgb(255,255,255); stroke-width: 3; stroke-dasharray: none; stroke-linecap: butt; stroke-dashoffset: 0; stroke-linejoin: miter; stroke-miterlimit: 4; fill: rgb(255,255,255); fill-opacity: 0; fill-rule: nonzero; opacity: 1;" vector-effect="non-scaling-stroke"  transform=" translate(-0.0003550907, 0)" d="M 43.7 -199.01 C 43.7 -199.01 -168.16000000000003 25.5 48.93000000000001 199.01" stroke-linecap="round" />
</g>
		<g transform="matrix(1 0 0 1 25.411402185 -405.837743926)" id="GFwka-L3IYInmWN7VpHpr"  >
<path style="stroke: rgb(255,255,255); stroke-width: 1; stroke-dasharray: none; stroke-linecap: butt; stroke-dashoffset: 0; stroke-linejoin: miter; stroke-miterlimit: 4; fill: rgb(255,255,255); fill-opacity: 0; fill-rule: nonzero; opacity: 1;" vector-effect="non-scaling-stroke"  transform=" translate(0, 0)" d="M 0 0" stroke-linecap="round" />
</g>
		<g transform="matrix(1 0 0 1 -72.3453254069 -6.139995)" id="Ui6Kc1VUpRFNv7VHispGg"  >
<path style="stroke: rgb(255,255,255); stroke-width: 2; stroke-dasharray: none; stroke-linecap: butt; stroke-dashoffset: 0; stroke-linejoin: miter; stroke-miterlimit: 4; fill: rgb(255,255,255); fill-opacity: 0; fill-rule: nonzero; opacity: 1;" vector-effect="non-scaling-stroke"  transform=" translate(0.0008094652, 0)" d="M 70.69 -399.38 C 70.69 -399.38 -250.48000000000002 -36.420000000000016 71.74 399.38" stroke-linecap="round" />
</g>
		<g transform="matrix(-1 0 0 1 68.1401450805 -5.8595480412)" id="zQ6VZTM2uM9Zpy_r7pOal"  >
<path style="stroke: rgb(255,255,255); stroke-width: 2; stroke-dasharray: none; stroke-linecap: butt; stroke-dashoffset: 0; stroke-linejoin: miter; stroke-miterlimit: 4; fill: rgb(255,255,255); fill-opacity: 0; fill-rule: nonzero; opacity: 1;" vector-effect="non-scaling-stroke"  transform=" translate(0.0008094652, 0)" d="M 70.69 -399.38 C 70.69 -399.38 -250.48000000000002 -36.420000000000016 71.74 399.38" stroke-linecap="round" />
</g>
		<g transform="matrix(0.1930499898 0 0 0.1930499898 -1.844215 399.5535714286)" id="uApd6vi00ikjTRtbWUpa8"  >
<path style="stroke: rgb(234,47,132); stroke-width: 0; stroke-dasharray: none; stroke-linecap: butt; stroke-dashoffset: 0; stroke-linejoin: miter; stroke-miterlimit: 4; fill: rgb(145,233,233); fill-rule: nonzero; opacity: 1;" vector-effect="non-scaling-stroke"  transform=" translate(0, 0)" d="M 0 -56.98 C 31.45 -56.98 56.98 -31.449999999999996 56.98 0 C 56.98 31.45 31.449999999999996 56.98 0 56.98 C -31.45 56.98 -56.98 31.449999999999996 -56.98 0 C -56.98 -31.45 -31.449999999999996 -56.98 0 -56.98 z" stroke-linecap="round" />
</g>
		<g transform="matrix(0.26325 0 0 0.26325 -2.844215 -38.2195968725)" id="7BFfbwwvxdqI0gv4uvnMy"  >
<path style="stroke: rgb(234,47,132); stroke-width: 0; stroke-dasharray: none; stroke-linecap: butt; stroke-dashoffset: 0; stroke-linejoin: miter; stroke-miterlimit: 4; fill: rgb(145,233,233); fill-rule: nonzero; opacity: 1;" vector-effect="non-scaling-stroke"  transform=" translate(0, 0)" d="M 0 -56.98 C 31.45 -56.98 56.98 -31.449999999999996 56.98 0 C 56.98 31.45 31.449999999999996 56.98 0 56.98 C -31.45 56.98 -56.98 31.449999999999996 -56.98 0 C -56.98 -31.45 -31.449999999999996 -56.98 0 -56.98 z" stroke-linecap="round" />
</g>
		<g transform="matrix(0.307125 0 0 0.307125 -3.1026043847 -395.5129021519)" id="q-GNKwQN8B_gSGtUDtocX"  >
<path style="stroke: rgb(234,47,132); stroke-width: 0; stroke-dasharray: none; stroke-linecap: butt; stroke-dashoffset: 0; stroke-linejoin: miter; stroke-miterlimit: 4; fill: rgb(145,233,233); fill-rule: nonzero; opacity: 1;" vector-effect="non-scaling-stroke"  transform=" translate(0, 0)" d="M 0 -56.98 C 31.45 -56.98 56.98 -31.449999999999996 56.98 0 C 56.98 31.45 31.449999999999996 56.98 0 56.98 C -31.45 56.98 -56.98 31.449999999999996 -56.98 0 C -56.98 -31.45 -31.449999999999996 -56.98 0 -56.98 z" stroke-linecap="round" />
</g>
		<g transform="matrix(0.26325 0 0 0.26325 79.199835 -277.3468175)" id="NgH0eyzhvyyu-H51YL36w"  >
<path style="stroke: rgb(234,47,132); stroke-width: 0; stroke-dasharray: none; stroke-linecap: butt; stroke-dashoffset: 0; stroke-linejoin: miter; stroke-miterlimit: 4; fill: rgb(145,233,233); fill-rule: nonzero; opacity: 1;" vector-effect="non-scaling-stroke"  transform=" translate(-11.4, 26.59)" d="M 11.4 -83.57 C 42.85 -83.57 68.38 -58.03999999999999 68.38 -26.589999999999996 C 68.38 4.860000000000003 42.849999999999994 30.39 11.399999999999999 30.39 C -20.05 30.39 -45.58 4.859999999999999 -45.58 -26.589999999999996 C -45.58 -58.03999999999999 -20.049999999999997 -83.57 11.399999999999999 -83.57 z" stroke-linecap="round" />
</g>
		<g transform="matrix(0.26325 0 0 0.26325 -82.088215 -277.3468175)" id="TjXjIAOyQZXAbkew3B6Ps"  >
<path style="stroke: rgb(234,47,132); stroke-width: 0; stroke-dasharray: none; stroke-linecap: butt; stroke-dashoffset: 0; stroke-linejoin: miter; stroke-miterlimit: 4; fill: rgb(145,233,233); fill-rule: nonzero; opacity: 1;" vector-effect="non-scaling-stroke"  transform=" translate(-7.6, 26.59)" d="M 7.6 -83.57 C 39.05 -83.57 64.58 -58.03999999999999 64.58 -26.589999999999996 C 64.58 4.860000000000003 39.05 30.39 7.600000000000001 30.39 C -23.849999999999998 30.39 -49.379999999999995 4.859999999999999 -49.379999999999995 -26.589999999999996 C -49.379999999999995 -58.03999999999999 -23.849999999999994 -83.57 7.600000000000001 -83.57 z" stroke-linecap="round" />
</g>
</g>
</g>
<g transform="matrix(-0.7071067812 0.7071067812 0.7071067812 0.7071067812 528.6285628261 532.3449050668)" id="q5IdS5OFGtaCCJk2G3RPW"  >
<g style="">
		<g transform="matrix(1 0 0 1 33.7106732793 -408.0129021519)" id="2PQSCNyLmHfzLkWTdIEP1"  >
<path style="stroke: rgb(255,255,255); stroke-width: 1; stroke-dasharray: none; stroke-linecap: butt; stroke-dashoffset: 0; stroke-linejoin: miter; stroke-miterlimit: 4; fill: rgb(255,255,255); fill-opacity: 0; fill-rule: nonzero; opacity: 1;" vector-effect="non-scaling-stroke"  transform=" translate(0, 0)" d="M 0 0" stroke-linecap="round" />
</g>
		<g transform="matrix(0.9284710147 0 0 0.9284710029 -44.3716957764 -218.7491890575)" id="mG7FbMO6TxrMWIa-_sLhO"  >
<path style="stroke: rgb(255,255,255); stroke-width: 3; stroke-dasharray: none; stroke-linecap: butt; stroke-dashoffset: 0; stroke-linejoin: miter; stroke-miterlimit: 4; fill: rgb(255,255,255); fill-opacity: 0; fill-rule: nonzero; opacity: 1;" vector-effect="non-scaling-stroke"  transform=" translate(-0.0003550907, 0)" d="M 43.7 -199.01 C 43.7 -199.01 -168.16000000000003 25.5 48.93000000000001 199.01" stroke-linecap="round" />
</g>
		<g transform="matrix(-0.9284710147 0 0 0.9284710029 39.2103486678 -218.7491890575)" id="5t5x8OchPUeZmcLmyT8ec"  >
<path style="stroke: rgb(255,255,255); stroke-width: 3; stroke-dasharray: none; stroke-linecap: butt; stroke-dashoffset: 0; stroke-linejoin: miter; stroke-miterlimit: 4; fill: rgb(255,255,255); fill-opacity: 0; fill-rule: nonzero; opacity: 1;" vector-effect="non-scaling-stroke"  transform=" translate(-0.0003550907, 0)" d="M 43.7 -199.01 C 43.7 -199.01 -168.16000000000003 25.5 48.93000000000001 199.01" stroke-linecap="round" />
</g>
		<g transform="matrix(1 0 0 1 25.411402185 -405.837743926)" id="wldJSUyC8NYsKtSgh-5wh"  >
<path style="stroke: rgb(255,255,255); stroke-width: 1; stroke-dasharray: none; stroke-linecap: butt; stroke-dashoffset: 0; stroke-linejoin: miter; stroke-miterlimit: 4; fill: rgb(255,255,255); fill-opacity: 0; fill-rule: nonzero; opacity: 1;" vector-effect="non-scaling-stroke"  transform=" translate(0, 0)" d="M 0 0" stroke-linecap="round" />
</g>
		<g transform="matrix(1 0 0 1 -72.3453254069 -6.139995)" id="kC2ngp2gi4S4qPqe1tRah"  >
<path style="stroke: rgb(255,255,255); stroke-width: 2; stroke-dasharray: none; stroke-linecap: butt; stroke-dashoffset: 0; stroke-linejoin: miter; stroke-miterlimit: 4; fill: rgb(255,255,255); fill-opacity: 0; fill-rule: nonzero; opacity: 1;" vector-effect="non-scaling-stroke"  transform=" translate(0.0008094652, 0)" d="M 70.69 -399.38 C 70.69 -399.38 -250.48000000000002 -36.420000000000016 71.74 399.38" stroke-linecap="round" />
</g>
		<g transform="matrix(-1 0 0 1 68.1401450805 -5.8595480412)" id="_Mepm8KsbEBxd8KvwXk3Y"  >
<path style="stroke: rgb(255,255,255); stroke-width: 2; stroke-dasharray: none; stroke-linecap: butt; stroke-dashoffset: 0; stroke-linejoin: miter; stroke-miterlimit: 4; fill: rgb(255,255,255); fill-opacity: 0; fill-rule: nonzero; opacity: 1;" vector-effect="non-scaling-stroke"  transform=" translate(0.0008094652, 0)" d="M 70.69 -399.38 C 70.69 -399.38 -250.48000000000002 -36.420000000000016 71.74 399.38" stroke-linecap="round" />
</g>
		<g transform="matrix(0.1930499898 0 0 0.1930499898 -1.844215 399.5535714286)" id="xGV9TL_b_yX_Wgcmrfak5"  >
<path style="stroke: rgb(234,47,132); stroke-width: 0; stroke-dasharray: none; stroke-linecap: butt; stroke-dashoffset: 0; stroke-linejoin: miter; stroke-miterlimit: 4; fill: rgb(145,233,233); fill-rule: nonzero; opacity: 1;" vector-effect="non-scaling-stroke"  transform=" translate(0, 0)" d="M 0 -56.98 C 31.45 -56.98 56.98 -31.449999999999996 56.98 0 C 56.98 31.45 31.449999999999996 56.98 0 56.98 C -31.45 56.98 -56.98 31.449999999999996 -56.98 0 C -56.98 -31.45 -31.449999999999996 -56.98 0 -56.98 z" stroke-linecap="round" />
</g>
		<g transform="matrix(0.26325 0 0 0.26325 -2.844215 -38.2195968725)" id="MX5POm1xRCFg3syEUCWUB"  >
<path style="stroke: rgb(234,47,132); stroke-width: 0; stroke-dasharray: none; stroke-linecap: butt; stroke-dashoffset: 0; stroke-linejoin: miter; stroke-miterlimit: 4; fill: rgb(145,233,233); fill-rule: nonzero; opacity: 1;" vector-effect="non-scaling-stroke"  transform=" translate(0, 0)" d="M 0 -56.98 C 31.45 -56.98 56.98 -31.449999999999996 56.98 0 C 56.98 31.45 31.449999999999996 56.98 0 56.98 C -31.45 56.98 -56.98 31.449999999999996 -56.98 0 C -56.98 -31.45 -31.449999999999996 -56.98 0 -56.98 z" stroke-linecap="round" />
</g>
		<g transform="matrix(0.307125 0 0 0.307125 -3.1026043847 -395.5129021519)" id="yT3L7NYNrRulrX1skkaxr"  >
<path style="stroke: rgb(234,47,132); stroke-width: 0; stroke-dasharray: none; stroke-linecap: butt; stroke-dashoffset: 0; stroke-linejoin: miter; stroke-miterlimit: 4; fill: rgb(145,233,233); fill-rule: nonzero; opacity: 1;" vector-effect="non-scaling-stroke"  transform=" translate(0, 0)" d="M 0 -56.98 C 31.45 -56.98 56.98 -31.449999999999996 56.98 0 C 56.98 31.45 31.449999999999996 56.98 0 56.98 C -31.45 56.98 -56.98 31.449999999999996 -56.98 0 C -56.98 -31.45 -31.449999999999996 -56.98 0 -56.98 z" stroke-linecap="round" />
</g>
		<g transform="matrix(0.26325 0 0 0.26325 79.199835 -277.3468175)" id="9JVv2hkMLQs2ydj47Cmpv"  >
<path style="stroke: rgb(234,47,132); stroke-width: 0; stroke-dasharray: none; stroke-linecap: butt; stroke-dashoffset: 0; stroke-linejoin: miter; stroke-miterlimit: 4; fill: rgb(145,233,233); fill-rule: nonzero; opacity: 1;" vector-effect="non-scaling-stroke"  transform=" translate(-11.4, 26.59)" d="M 11.4 -83.57 C 42.85 -83.57 68.38 -58.03999999999999 68.38 -26.589999999999996 C 68.38 4.860000000000003 42.849999999999994 30.39 11.399999999999999 30.39 C -20.05 30.39 -45.58 4.859999999999999 -45.58 -26.589999999999996 C -45.58 -58.03999999999999 -20.049999999999997 -83.57 11.399999999999999 -83.57 z" stroke-linecap="round" />
</g>
		<g transform="matrix(0.26325 0 0 0.26325 -82.088215 -277.3468175)" id="0L9sW0O9jDe6eUeBixDO6"  >
<path style="stroke: rgb(234,47,132); stroke-width: 0; stroke-dasharray: none; stroke-linecap: butt; stroke-dashoffset: 0; stroke-linejoin: miter; stroke-miterlimit: 4; fill: rgb(145,233,233); fill-rule: nonzero; opacity: 1;" vector-effect="non-scaling-stroke"  transform=" translate(-7.6, 26.59)" d="M 7.6 -83.57 C 39.05 -83.57 64.58 -58.03999999999999 64.58 -26.589999999999996 C 64.58 4.860000000000003 39.05 30.39 7.600000000000001 30.39 C -23.849999999999998 30.39 -49.379999999999995 4.859999999999999 -49.379999999999995 -26.589999999999996 C -49.379999999999995 -58.03999999999999 -23.849999999999994 -83.57 7.600000000000001 -83.57 z" stroke-linecap="round" />
</g>
</g>
</g>
<g transform="matrix(1 0 0 1 810.9951755984 1005.5642946048)" id="yJPpGj6Fva0Kbo_swo1V1"  >
<path style="stroke: rgb(255,255,255); stroke-width: 3; stroke-dasharray: none; stroke-linecap: butt; stroke-dashoffset: 0; stroke-linejoin: miter; stroke-miterlimit: 4; fill: rgb(255,255,255); fill-opacity: 0; fill-rule: nonzero; opacity: 1;" vector-effect="non-scaling-stroke"  transform=" translate(0, 0)" d="M 0 0" stroke-linecap="round" />
</g>
<g transform="matrix(1 0 0 1 814.324215 414.2144702842)" id="7rNMNT8di5X5IVyfTUlrd"  >
<g style="">
		<g transform="matrix(1 0 0 1 33.7106732793 -408.0129021519)" id="8szDsUxNRjtkVny2ApubQ"  >
<path style="stroke: rgb(255,255,255); stroke-width: 1; stroke-dasharray: none; stroke-linecap: butt; stroke-dashoffset: 0; stroke-linejoin: miter; stroke-miterlimit: 4; fill: rgb(255,255,255); fill-opacity: 0; fill-rule: nonzero; opacity: 1;" vector-effect="non-scaling-stroke"  transform=" translate(0, 0)" d="M 0 0" stroke-linecap="round" />
</g>
		<g transform="matrix(0.9284710147 0 0 0.9284710029 -44.3716957764 -218.7491890575)" id="pU8zt62LkM4W1k45lf34Z"  >
<path style="stroke: rgb(255,255,255); stroke-width: 3; stroke-dasharray: none; stroke-linecap: butt; stroke-dashoffset: 0; stroke-linejoin: miter; stroke-miterlimit: 4; fill: rgb(255,255,255); fill-opacity: 0; fill-rule: nonzero; opacity: 1;" vector-effect="non-scaling-stroke"  transform=" translate(-0.0003550907, 0)" d="M 43.7 -199.01 C 43.7 -199.01 -168.16000000000003 25.5 48.93000000000001 199.01" stroke-linecap="round" />
</g>
		<g transform="matrix(-0.9284710147 0 0 0.9284710029 39.2103486678 -218.7491890575)" id="mUAijn2IyHn1WHJL-1wzD"  >
<path style="stroke: rgb(255,255,255); stroke-width: 3; stroke-dasharray: none; stroke-linecap: butt; stroke-dashoffset: 0; stroke-linejoin: miter; stroke-miterlimit: 4; fill: rgb(255,255,255); fill-opacity: 0; fill-rule: nonzero; opacity: 1;" vector-effect="non-scaling-stroke"  transform=" translate(-0.0003550907, 0)" d="M 43.7 -199.01 C 43.7 -199.01 -168.16000000000003 25.5 48.93000000000001 199.01" stroke-linecap="round" />
</g>
		<g transform="matrix(1 0 0 1 25.411402185 -405.837743926)" id="9RH5KrDqNDST8bNea0vYU"  >
<path style="stroke: rgb(255,255,255); stroke-width: 1; stroke-dasharray: none; stroke-linecap: butt; stroke-dashoffset: 0; stroke-linejoin: miter; stroke-miterlimit: 4; fill: rgb(255,255,255); fill-opacity: 0; fill-rule: nonzero; opacity: 1;" vector-effect="non-scaling-stroke"  transform=" translate(0, 0)" d="M 0 0" stroke-linecap="round" />
</g>
		<g transform="matrix(1 0 0 1 -72.3453254069 -6.139995)" id="WAJ_3KJcHBIcOX5Rn23-D"  >
<path style="stroke: rgb(255,255,255); stroke-width: 2; stroke-dasharray: none; stroke-linecap: butt; stroke-dashoffset: 0; stroke-linejoin: miter; stroke-miterlimit: 4; fill: rgb(255,255,255); fill-opacity: 0; fill-rule: nonzero; opacity: 1;" vector-effect="non-scaling-stroke"  transform=" translate(0.0008094652, 0)" d="M 70.69 -399.38 C 70.69 -399.38 -250.48000000000002 -36.420000000000016 71.74 399.38" stroke-linecap="round" />
</g>
		<g transform="matrix(-1 0 0 1 68.1401450805 -5.8595480412)" id="5d0CzHSbiXUqqtebsYxSU"  >
<path style="stroke: rgb(255,255,255); stroke-width: 2; stroke-dasharray: none; stroke-linecap: butt; stroke-dashoffset: 0; stroke-linejoin: miter; stroke-miterlimit: 4; fill: rgb(255,255,255); fill-opacity: 0; fill-rule: nonzero; opacity: 1;" vector-effect="non-scaling-stroke"  transform=" translate(0.0008094652, 0)" d="M 70.69 -399.38 C 70.69 -399.38 -250.48000000000002 -36.420000000000016 71.74 399.38" stroke-linecap="round" />
</g>
		<g transform="matrix(0.1930499898 0 0 0.1930499898 -1.844215 399.5535714286)" id="FQnyVb7xFuVsVoGw7E_tF"  >
<path style="stroke: rgb(234,47,132); stroke-width: 0; stroke-dasharray: none; stroke-linecap: butt; stroke-dashoffset: 0; stroke-linejoin: miter; stroke-miterlimit: 4; fill: rgb(145,233,233); fill-rule: nonzero; opacity: 1;" vector-effect="non-scaling-stroke"  transform=" translate(0, 0)" d="M 0 -56.98 C 31.45 -56.98 56.98 -31.449999999999996 56.98 0 C 56.98 31.45 31.449999999999996 56.98 0 56.98 C -31.45 56.98 -56.98 31.449999999999996 -56.98 0 C -56.98 -31.45 -31.449999999999996 -56.98 0 -56.98 z" stroke-linecap="round" />
</g>
		<g transform="matrix(0.26325 0 0 0.26325 -2.844215 -38.2195968725)" id="230JgpfrGsw_pTj2j-TU7"  >
<path style="stroke: rgb(234,47,132); stroke-width: 0; stroke-dasharray: none; stroke-linecap: butt; stroke-dashoffset: 0; stroke-linejoin: miter; stroke-miterlimit: 4; fill: rgb(145,233,233); fill-rule: nonzero; opacity: 1;" vector-effect="non-scaling-stroke"  transform=" translate(0, 0)" d="M 0 -56.98 C 31.45 -56.98 56.98 -31.449999999999996 56.98 0 C 56.98 31.45 31.449999999999996 56.98 0 56.98 C -31.45 56.98 -56.98 31.449999999999996 -56.98 0 C -56.98 -31.45 -31.449999999999996 -56.98 0 -56.98 z" stroke-linecap="round" />
</g>
		<g transform="matrix(0.307125 0 0 0.307125 -3.1026043847 -395.5129021519)" id="X03PyfeGeyH4FG4ee-7wI"  >
<path style="stroke: rgb(234,47,132); stroke-width: 0; stroke-dasharray: none; stroke-linecap: butt; stroke-dashoffset: 0; stroke-linejoin: miter; stroke-miterlimit: 4; fill: rgb(145,233,233); fill-rule: nonzero; opacity: 1;" vector-effect="non-scaling-stroke"  transform=" translate(0, 0)" d="M 0 -56.98 C 31.45 -56.98 56.98 -31.449999999999996 56.98 0 C 56.98 31.45 31.449999999999996 56.98 0 56.98 C -31.45 56.98 -56.98 31.449999999999996 -56.98 0 C -56.98 -31.45 -31.449999999999996 -56.98 0 -56.98 z" stroke-linecap="round" />
</g>
		<g transform="matrix(0.26325 0 0 0.26325 79.199835 -277.3468175)" id="4v5pzk2EdnPPQGZerLpPj"  >
<path style="stroke: rgb(234,47,132); stroke-width: 0; stroke-dasharray: none; stroke-linecap: butt; stroke-dashoffset: 0; stroke-linejoin: miter; stroke-miterlimit: 4; fill: rgb(145,233,233); fill-rule: nonzero; opacity: 1;" vector-effect="non-scaling-stroke"  transform=" translate(-11.4, 26.59)" d="M 11.4 -83.57 C 42.85 -83.57 68.38 -58.03999999999999 68.38 -26.589999999999996 C 68.38 4.860000000000003 42.849999999999994 30.39 11.399999999999999 30.39 C -20.05 30.39 -45.58 4.859999999999999 -45.58 -26.589999999999996 C -45.58 -58.03999999999999 -20.049999999999997 -83.57 11.399999999999999 -83.57 z" stroke-linecap="round" />
</g>
		<g transform="matrix(0.26325 0 0 0.26325 -82.088215 -277.3468175)" id="aZLNYJe6Jsevy3exyv023"  >
<path style="stroke: rgb(234,47,132); stroke-width: 0; stroke-dasharray: none; stroke-linecap: butt; stroke-dashoffset: 0; stroke-linejoin: miter; stroke-miterlimit: 4; fill: rgb(145,233,233); fill-rule: nonzero; opacity: 1;" vector-effect="non-scaling-stroke"  transform=" translate(-7.6, 26.59)" d="M 7.6 -83.57 C 39.05 -83.57 64.58 -58.03999999999999 64.58 -26.589999999999996 C 64.58 4.860000000000003 39.05 30.39 7.600000000000001 30.39 C -23.849999999999998 30.39 -49.379999999999995 4.859999999999999 -49.379999999999995 -26.589999999999996 C -49.379999999999995 -58.03999999999999 -23.849999999999994 -83.57 7.600000000000001 -83.57 z" stroke-linecap="round" />
</g>
</g>
</g>
<g transform="matrix(0 1 -1 0 1212.364215 815.2144702842)" id="ewGqSapCHnZyqReD4ryWC"  >
<g style="">
		<g transform="matrix(1 0 0 1 33.7106732793 -408.0129021519)" id="srCAsmJB3oiifXS3AZfZI"  >
<path style="stroke: rgb(255,255,255); stroke-width: 1; stroke-dasharray: none; stroke-linecap: butt; stroke-dashoffset: 0; stroke-linejoin: miter; stroke-miterlimit: 4; fill: rgb(255,255,255); fill-opacity: 0; fill-rule: nonzero; opacity: 1;" vector-effect="non-scaling-stroke"  transform=" translate(0, 0)" d="M 0 0" stroke-linecap="round" />
</g>
		<g transform="matrix(0.9284710147 0 0 0.9284710029 -44.3716957764 -218.7491890575)" id="roYJoanBIXN53nALpn5MT"  >
<path style="stroke: rgb(255,255,255); stroke-width: 3; stroke-dasharray: none; stroke-linecap: butt; stroke-dashoffset: 0; stroke-linejoin: miter; stroke-miterlimit: 4; fill: rgb(255,255,255); fill-opacity: 0; fill-rule: nonzero; opacity: 1;" vector-effect="non-scaling-stroke"  transform=" translate(-0.0003550907, 0)" d="M 43.7 -199.01 C 43.7 -199.01 -168.16000000000003 25.5 48.93000000000001 199.01" stroke-linecap="round" />
</g>
		<g transform="matrix(-0.9284710147 0 0 0.9284710029 39.2103486678 -218.7491890575)" id="kSrXHzgH_iexny-nP_vL5"  >
<path style="stroke: rgb(255,255,255); stroke-width: 3; stroke-dasharray: none; stroke-linecap: butt; stroke-dashoffset: 0; stroke-linejoin: miter; stroke-miterlimit: 4; fill: rgb(255,255,255); fill-opacity: 0; fill-rule: nonzero; opacity: 1;" vector-effect="non-scaling-stroke"  transform=" translate(-0.0003550907, 0)" d="M 43.7 -199.01 C 43.7 -199.01 -168.16000000000003 25.5 48.93000000000001 199.01" stroke-linecap="round" />
</g>
		<g transform="matrix(1 0 0 1 25.411402185 -405.837743926)" id="Kzam8wpqymUZAlWrONTdr"  >
<path style="stroke: rgb(255,255,255); stroke-width: 1; stroke-dasharray: none; stroke-linecap: butt; stroke-dashoffset: 0; stroke-linejoin: miter; stroke-miterlimit: 4; fill: rgb(255,255,255); fill-opacity: 0; fill-rule: nonzero; opacity: 1;" vector-effect="non-scaling-stroke"  transform=" translate(0, 0)" d="M 0 0" stroke-linecap="round" />
</g>
		<g transform="matrix(1 0 0 1 -72.3453254069 -6.139995)" id="ZBMnX86vZ3bfBcoZqJviN"  >
<path style="stroke: rgb(255,255,255); stroke-width: 2; stroke-dasharray: none; stroke-linecap: butt; stroke-dashoffset: 0; stroke-linejoin: miter; stroke-miterlimit: 4; fill: rgb(255,255,255); fill-opacity: 0; fill-rule: nonzero; opacity: 1;" vector-effect="non-scaling-stroke"  transform=" translate(0.0008094652, 0)" d="M 70.69 -399.38 C 70.69 -399.38 -250.48000000000002 -36.420000000000016 71.74 399.38" stroke-linecap="round" />
</g>
		<g transform="matrix(-1 0 0 1 68.1401450805 -5.8595480412)" id="hXehT4j0ZVtlhcDzlNgFb"  >
<path style="stroke: rgb(255,255,255); stroke-width: 2; stroke-dasharray: none; stroke-linecap: butt; stroke-dashoffset: 0; stroke-linejoin: miter; stroke-miterlimit: 4; fill: rgb(255,255,255); fill-opacity: 0; fill-rule: nonzero; opacity: 1;" vector-effect="non-scaling-stroke"  transform=" translate(0.0008094652, 0)" d="M 70.69 -399.38 C 70.69 -399.38 -250.48000000000002 -36.420000000000016 71.74 399.38" stroke-linecap="round" />
</g>
		<g transform="matrix(0.1930499898 0 0 0.1930499898 -1.844215 399.5535714286)" id="DO3P1jSeL-iKNoiLeihDj"  >
<path style="stroke: rgb(234,47,132); stroke-width: 0; stroke-dasharray: none; stroke-linecap: butt; stroke-dashoffset: 0; stroke-linejoin: miter; stroke-miterlimit: 4; fill: rgb(145,233,233); fill-rule: nonzero; opacity: 1;" vector-effect="non-scaling-stroke"  transform=" translate(0, 0)" d="M 0 -56.98 C 31.45 -56.98 56.98 -31.449999999999996 56.98 0 C 56.98 31.45 31.449999999999996 56.98 0 56.98 C -31.45 56.98 -56.98 31.449999999999996 -56.98 0 C -56.98 -31.45 -31.449999999999996 -56.98 0 -56.98 z" stroke-linecap="round" />
</g>
		<g transform="matrix(0.26325 0 0 0.26325 -2.844215 -38.2195968725)" id="ulRYxo3h3WNiEJcuu5BzD"  >
<path style="stroke: rgb(234,47,132); stroke-width: 0; stroke-dasharray: none; stroke-linecap: butt; stroke-dashoffset: 0; stroke-linejoin: miter; stroke-miterlimit: 4; fill: rgb(145,233,233); fill-rule: nonzero; opacity: 1;" vector-effect="non-scaling-stroke"  transform=" translate(0, 0)" d="M 0 -56.98 C 31.45 -56.98 56.98 -31.449999999999996 56.98 0 C 56.98 31.45 31.449999999999996 56.98 0 56.98 C -31.45 56.98 -56.98 31.449999999999996 -56.98 0 C -56.98 -31.45 -31.449999999999996 -56.98 0 -56.98 z" stroke-linecap="round" />
</g>
		<g transform="matrix(0.307125 0 0 0.307125 -3.1026043847 -395.5129021519)" id="NAVfVqhdKQ51MF-_9SlO1"  >
<path style="stroke: rgb(234,47,132); stroke-width: 0; stroke-dasharray: none; stroke-linecap: butt; stroke-dashoffset: 0; stroke-linejoin: miter; stroke-miterlimit: 4; fill: rgb(145,233,233); fill-rule: nonzero; opacity: 1;" vector-effect="non-scaling-stroke"  transform=" translate(0, 0)" d="M 0 -56.98 C 31.45 -56.98 56.98 -31.449999999999996 56.98 0 C 56.98 31.45 31.449999999999996 56.98 0 56.98 C -31.45 56.98 -56.98 31.449999999999996 -56.98 0 C -56.98 -31.45 -31.449999999999996 -56.98 0 -56.98 z" stroke-linecap="round" />
</g>
		<g transform="matrix(0.26325 0 0 0.26325 79.199835 -277.3468175)" id="J2pGt0kxro8nMeIJsRicq"  >
<path style="stroke: rgb(234,47,132); stroke-width: 0; stroke-dasharray: none; stroke-linecap: butt; stroke-dashoffset: 0; stroke-linejoin: miter; stroke-miterlimit: 4; fill: rgb(145,233,233); fill-rule: nonzero; opacity: 1;" vector-effect="non-scaling-stroke"  transform=" translate(-11.4, 26.59)" d="M 11.4 -83.57 C 42.85 -83.57 68.38 -58.03999999999999 68.38 -26.589999999999996 C 68.38 4.860000000000003 42.849999999999994 30.39 11.399999999999999 30.39 C -20.05 30.39 -45.58 4.859999999999999 -45.58 -26.589999999999996 C -45.58 -58.03999999999999 -20.049999999999997 -83.57 11.399999999999999 -83.57 z" stroke-linecap="round" />
</g>
		<g transform="matrix(0.26325 0 0 0.26325 -82.088215 -277.3468175)" id="pKezbUFATKCb9g3vz1D6l"  >
<path style="stroke: rgb(234,47,132); stroke-width: 0; stroke-dasharray: none; stroke-linecap: butt; stroke-dashoffset: 0; stroke-linejoin: miter; stroke-miterlimit: 4; fill: rgb(145,233,233); fill-rule: nonzero; opacity: 1;" vector-effect="non-scaling-stroke"  transform=" translate(-7.6, 26.59)" d="M 7.6 -83.57 C 39.05 -83.57 64.58 -58.03999999999999 64.58 -26.589999999999996 C 64.58 4.860000000000003 39.05 30.39 7.600000000000001 30.39 C -23.849999999999998 30.39 -49.379999999999995 4.859999999999999 -49.379999999999995 -26.589999999999996 C -49.379999999999995 -58.03999999999999 -23.849999999999994 -83.57 7.600000000000001 -83.57 z" stroke-linecap="round" />
</g>
</g>
</g>
<g transform="matrix(0.7071067812 0.7071067812 -0.7071067812 0.7071067812 1096.4691425362 531.7941804292)" id="eb9PCErj_cXiqzywvuS9s"  >
<g style="">
		<g transform="matrix(1 0 0 1 33.7106732793 -408.0129021519)" id="V2nNcBXEc1GozG1X50RiD"  >
<path style="stroke: rgb(255,255,255); stroke-width: 1; stroke-dasharray: none; stroke-linecap: butt; stroke-dashoffset: 0; stroke-linejoin: miter; stroke-miterlimit: 4; fill: rgb(255,255,255); fill-opacity: 0; fill-rule: nonzero; opacity: 1;" vector-effect="non-scaling-stroke"  transform=" translate(0, 0)" d="M 0 0" stroke-linecap="round" />
</g>
		<g transform="matrix(0.9284710147 0 0 0.9284710029 -44.3716957764 -218.7491890575)" id="pVgihu0JqNfyyXfl9Jd9r"  >
<path style="stroke: rgb(255,255,255); stroke-width: 3; stroke-dasharray: none; stroke-linecap: butt; stroke-dashoffset: 0; stroke-linejoin: miter; stroke-miterlimit: 4; fill: rgb(255,255,255); fill-opacity: 0; fill-rule: nonzero; opacity: 1;" vector-effect="non-scaling-stroke"  transform=" translate(-0.0003550907, 0)" d="M 43.7 -199.01 C 43.7 -199.01 -168.16000000000003 25.5 48.93000000000001 199.01" stroke-linecap="round" />
</g>
		<g transform="matrix(-0.9284710147 0 0 0.9284710029 39.2103486678 -218.7491890575)" id="QQDw982y_CZMEa3tCavVO"  >
<path style="stroke: rgb(255,255,255); stroke-width: 3; stroke-dasharray: none; stroke-linecap: butt; stroke-dashoffset: 0; stroke-linejoin: miter; stroke-miterlimit: 4; fill: rgb(255,255,255); fill-opacity: 0; fill-rule: nonzero; opacity: 1;" vector-effect="non-scaling-stroke"  transform=" translate(-0.0003550907, 0)" d="M 43.7 -199.01 C 43.7 -199.01 -168.16000000000003 25.5 48.93000000000001 199.01" stroke-linecap="round" />
</g>
		<g transform="matrix(1 0 0 1 25.411402185 -405.837743926)" id="ovcHOSy8pHok4kAgJhhQ4"  >
<path style="stroke: rgb(255,255,255); stroke-width: 1; stroke-dasharray: none; stroke-linecap: butt; stroke-dashoffset: 0; stroke-linejoin: miter; stroke-miterlimit: 4; fill: rgb(255,255,255); fill-opacity: 0; fill-rule: nonzero; opacity: 1;" vector-effect="non-scaling-stroke"  transform=" translate(0, 0)" d="M 0 0" stroke-linecap="round" />
</g>
		<g transform="matrix(1 0 0 1 -72.3453254069 -6.139995)" id="OuYOHD2HGgwojWncKJu1z"  >
<path style="stroke: rgb(255,255,255); stroke-width: 2; stroke-dasharray: none; stroke-linecap: butt; stroke-dashoffset: 0; stroke-linejoin: miter; stroke-miterlimit: 4; fill: rgb(255,255,255); fill-opacity: 0; fill-rule: nonzero; opacity: 1;" vector-effect="non-scaling-stroke"  transform=" translate(0.0008094652, 0)" d="M 70.69 -399.38 C 70.69 -399.38 -250.48000000000002 -36.420000000000016 71.74 399.38" stroke-linecap="round" />
</g>
		<g transform="matrix(-1 0 0 1 68.1401450805 -5.8595480412)" id="-8dJ7wAQS-BidIRuO1yW4"  >
<path style="stroke: rgb(255,255,255); stroke-width: 2; stroke-dasharray: none; stroke-linecap: butt; stroke-dashoffset: 0; stroke-linejoin: miter; stroke-miterlimit: 4; fill: rgb(255,255,255); fill-opacity: 0; fill-rule: nonzero; opacity: 1;" vector-effect="non-scaling-stroke"  transform=" translate(0.0008094652, 0)" d="M 70.69 -399.38 C 70.69 -399.38 -250.48000000000002 -36.420000000000016 71.74 399.38" stroke-linecap="round" />
</g>
		<g transform="matrix(0.1930499898 0 0 0.1930499898 -1.844215 399.5535714286)" id="WMHBG6kmV6UqLNdbBOpCe"  >
<path style="stroke: rgb(234,47,132); stroke-width: 0; stroke-dasharray: none; stroke-linecap: butt; stroke-dashoffset: 0; stroke-linejoin: miter; stroke-miterlimit: 4; fill: rgb(145,233,233); fill-rule: nonzero; opacity: 1;" vector-effect="non-scaling-stroke"  transform=" translate(0, 0)" d="M 0 -56.98 C 31.45 -56.98 56.98 -31.449999999999996 56.98 0 C 56.98 31.45 31.449999999999996 56.98 0 56.98 C -31.45 56.98 -56.98 31.449999999999996 -56.98 0 C -56.98 -31.45 -31.449999999999996 -56.98 0 -56.98 z" stroke-linecap="round" />
</g>
		<g transform="matrix(0.26325 0 0 0.26325 -2.844215 -38.2195968725)" id="CK01qUhKEFMKLKDQnQpwl"  >
<path style="stroke: rgb(234,47,132); stroke-width: 0; stroke-dasharray: none; stroke-linecap: butt; stroke-dashoffset: 0; stroke-linejoin: miter; stroke-miterlimit: 4; fill: rgb(145,233,233); fill-rule: nonzero; opacity: 1;" vector-effect="non-scaling-stroke"  transform=" translate(0, 0)" d="M 0 -56.98 C 31.45 -56.98 56.98 -31.449999999999996 56.98 0 C 56.98 31.45 31.449999999999996 56.98 0 56.98 C -31.45 56.98 -56.98 31.449999999999996 -56.98 0 C -56.98 -31.45 -31.449999999999996 -56.98 0 -56.98 z" stroke-linecap="round" />
</g>
		<g transform="matrix(0.307125 0 0 0.307125 -3.1026043847 -395.5129021519)" id="xWXkn6wepib0QWDAwdzjF"  >
<path style="stroke: rgb(234,47,132); stroke-width: 0; stroke-dasharray: none; stroke-linecap: butt; stroke-dashoffset: 0; stroke-linejoin: miter; stroke-miterlimit: 4; fill: rgb(145,233,233); fill-rule: nonzero; opacity: 1;" vector-effect="non-scaling-stroke"  transform=" translate(0, 0)" d="M 0 -56.98 C 31.45 -56.98 56.98 -31.449999999999996 56.98 0 C 56.98 31.45 31.449999999999996 56.98 0 56.98 C -31.45 56.98 -56.98 31.449999999999996 -56.98 0 C -56.98 -31.45 -31.449999999999996 -56.98 0 -56.98 z" stroke-linecap="round" />
</g>
		<g transform="matrix(0.26325 0 0 0.26325 79.199835 -277.3468175)" id="hlo2OjQXK6qXgdLShJkuT"  >
<path style="stroke: rgb(234,47,132); stroke-width: 0; stroke-dasharray: none; stroke-linecap: butt; stroke-dashoffset: 0; stroke-linejoin: miter; stroke-miterlimit: 4; fill: rgb(145,233,233); fill-rule: nonzero; opacity: 1;" vector-effect="non-scaling-stroke"  transform=" translate(-11.4, 26.59)" d="M 11.4 -83.57 C 42.85 -83.57 68.38 -58.03999999999999 68.38 -26.589999999999996 C 68.38 4.860000000000003 42.849999999999994 30.39 11.399999999999999 30.39 C -20.05 30.39 -45.58 4.859999999999999 -45.58 -26.589999999999996 C -45.58 -58.03999999999999 -20.049999999999997 -83.57 11.399999999999999 -83.57 z" stroke-linecap="round" />
</g>
		<g transform="matrix(0.26325 0 0 0.26325 -82.088215 -277.3468175)" id="_NKZrIo5xT6hSsV-bLaKT"  >
<path style="stroke: rgb(234,47,132); stroke-width: 0; stroke-dasharray: none; stroke-linecap: butt; stroke-dashoffset: 0; stroke-linejoin: miter; stroke-miterlimit: 4; fill: rgb(145,233,233); fill-rule: nonzero; opacity: 1;" vector-effect="non-scaling-stroke"  transform=" translate(-7.6, 26.59)" d="M 7.6 -83.57 C 39.05 -83.57 64.58 -58.03999999999999 64.58 -26.589999999999996 C 64.58 4.860000000000003 39.05 30.39 7.600000000000001 30.39 C -23.849999999999998 30.39 -49.379999999999995 4.859999999999999 -49.379999999999995 -26.589999999999996 C -49.379999999999995 -58.03999999999999 -23.849999999999994 -83.57 7.600000000000001 -83.57 z" stroke-linecap="round" />
</g>
</g>
</g>
<g transform="matrix(0.5749999008 0 0 0.5749999008 949.90497952 480.4875467339)" id="VoEQtCHCqzxBim5-Psgop"  >
<path style="stroke: rgb(185,81,151); stroke-width: 0; stroke-dasharray: none; stroke-linecap: butt; stroke-dashoffset: 0; stroke-linejoin: miter; stroke-miterlimit: 4; fill: rgb(145,233,233); fill-rule: nonzero; opacity: 1;" vector-effect="non-scaling-stroke"  transform=" translate(0, 0)" d="M 0 -21.73913 C 12 -21.73913 21.73913 -12 21.73913 0 C 21.73913 12 12 21.73913 0 21.73913 C -12 21.73913 -21.73913 12 -21.73913 0 C -21.73913 -12 -12 -21.73913 0 -21.73913 z" stroke-linecap="round" />
</g>
<g transform="matrix(0.5749999008 0 0 0.5749999008 672.40497952 480.4875496865)" id="9lja21EIb5RMRpicNuJ36"  >
<path style="stroke: rgb(185,81,151); stroke-width: 0; stroke-dasharray: none; stroke-linecap: butt; stroke-dashoffset: 0; stroke-linejoin: miter; stroke-miterlimit: 4; fill: rgb(145,233,233); fill-rule: nonzero; opacity: 1;" vector-effect="non-scaling-stroke"  transform=" translate(0, 0)" d="M 0 -21.73913 C 12 -21.73913 21.73913 -12 21.73913 0 C 21.73913 12 12 21.73913 0 21.73913 C -12 21.73913 -21.73913 12 -21.73913 0 C -21.73913 -12 -12 -21.73913 0 -21.73913 z" stroke-linecap="round" />
</g>
<g transform="matrix(0.9199998413 0 0 0.9199998413 814.324215 814.7144726908)" id="orWMR3lo4BMBoD7BSQf_K"  >
<path style="stroke: rgb(185,81,151); stroke-width: 0; stroke-dasharray: none; stroke-linecap: butt; stroke-dashoffset: 0; stroke-linejoin: miter; stroke-miterlimit: 4; fill: rgb(145,233,233); fill-rule: nonzero; opacity: 1;" vector-effect="non-scaling-stroke"  transform=" translate(0, 0)" d="M 0 -21.73913 C 12 -21.73913 21.73913 -12 21.73913 0 C 21.73913 12 12 21.73913 0 21.73913 C -12 21.73913 -21.73913 12 -21.73913 0 C -21.73913 -12 -12 -21.73913 0 -21.73913 z" stroke-linecap="round" />
</g>
<g transform="matrix(0.5749999008 0 0 0.5749999008 1141.5716461867 676.3208800673)" id="2lC2hJZ0ElCs7mptDoAkR"  >
<path style="stroke: rgb(185,81,151); stroke-width: 0; stroke-dasharray: none; stroke-linecap: butt; stroke-dashoffset: 0; stroke-linejoin: miter; stroke-miterlimit: 4; fill: rgb(145,233,233); fill-rule: nonzero; opacity: 1;" vector-effect="non-scaling-stroke"  transform=" translate(0, 0)" d="M 0 -21.73913 C 12 -21.73913 21.73913 -12 21.73913 0 C 21.73913 12 12 21.73913 0 21.73913 C -12 21.73913 -21.73913 12 -21.73913 0 C -21.73913 -12 -12 -21.73913 0 -21.73913 z" stroke-linecap="round" />
</g>
<g transform="matrix(1 0 0 1 810.9951755984 984.3976680099)" id="dgGwC_VowZXUqf5XhQZoq"  >
<path style="stroke: rgb(255,255,255); stroke-width: 3; stroke-dasharray: none; stroke-linecap: butt; stroke-dashoffset: 0; stroke-linejoin: miter; stroke-miterlimit: 4; fill: rgb(255,255,255); fill-opacity: 0; fill-rule: nonzero; opacity: 1;" vector-effect="non-scaling-stroke"  transform=" translate(0, 0.0000031988)" d="M -330.57647 -37.68173 C -330.57647 -37.68173 -22.27643999999998 128.97456 330.57647 -33.37091" stroke-linecap="round" />
</g>
<g transform="matrix(0.5749999008 0 0 0.5749999008 1138.5716461867 946.7159401824)" id="i8woEcgTvc2qknPutiF25"  >
<path style="stroke: rgb(185,81,151); stroke-width: 0; stroke-dasharray: none; stroke-linecap: butt; stroke-dashoffset: 0; stroke-linejoin: miter; stroke-miterlimit: 4; fill: rgb(145,233,233); fill-rule: nonzero; opacity: 1;" vector-effect="non-scaling-stroke"  transform=" translate(0, 0)" d="M 0 -21.73913 C 12 -21.73913 21.73913 -12 21.73913 0 C 21.73913 12 12 21.73913 0 21.73913 C -12 21.73913 -21.73913 12 -21.73913 0 C -21.73913 -12 -12 -21.73913 0 -21.73913 z" stroke-linecap="round" />
</g>
<g transform="matrix(0.5749999008 0 0 0.5749999008 492.4187031925 945.2159412087)" id="6911Ya-ymEKu7QFiDhkfW"  >
<path style="stroke: rgb(185,81,151); stroke-width: 0; stroke-dasharray: none; stroke-linecap: butt; stroke-dashoffset: 0; stroke-linejoin: miter; stroke-miterlimit: 4; fill: rgb(145,233,233); fill-rule: nonzero; opacity: 1;" vector-effect="non-scaling-stroke"  transform=" translate(0, 0)" d="M 0 -21.73913 C 12 -21.73913 21.73913 -12 21.73913 0 C 21.73913 12 12 21.73913 0 21.73913 C -12 21.73913 -21.73913 12 -21.73913 0 C -21.73913 -12 -12 -21.73913 0 -21.73913 z" stroke-linecap="round" />
</g>
<g transform="matrix(0.5749999008 0 0 0.5749999008 480.4187050102 676.3208800673)" id="4WnuSHHDBRps5FzRbT8hj"  >
<path style="stroke: rgb(185,81,151); stroke-width: 0; stroke-dasharray: none; stroke-linecap: butt; stroke-dashoffset: 0; stroke-linejoin: miter; stroke-miterlimit: 4; fill: rgb(145,233,233); fill-rule: nonzero; opacity: 1;" vector-effect="non-scaling-stroke"  transform=" translate(0, 0)" d="M 0 -21.73913 C 12 -21.73913 21.73913 -12 21.73913 0 C 21.73913 12 12 21.73913 0 21.73913 C -12 21.73913 -21.73913 12 -21.73913 0 C -21.73913 -12 -12 -21.73913 0 -21.73913 z" stroke-linecap="round" />
</g>
</svg>