<?xml version="1.0" encoding="UTF-8" standalone="no" ?>
<!DOCTYPE svg PUBLIC "-//W3C//DTD SVG 1.1//EN" "http://www.w3.org/Graphics/SVG/1.1/DTD/svg11.dtd">
<svg xmlns="http://www.w3.org/2000/svg" version="1.1" width="1638.2486" height="1070" viewBox="0 0 1638.2486 1070"
	 xml:space="preserve">
<desc>Created with Fabric.js 5.3.0</desc>
<defs>
</defs>
<g transform="matrix(1 0 0 1 813 531)" id="TflHZtH55S8xiNoZygIMT"  >
<g style="">
		<g transform="matrix(1 0 0 1 -2.0048244016 474.5642957159)" id="3pVmNASJgfgpo1H_t2oM3"  >
<path style="stroke: rgb(255,255,255); stroke-width: 3; stroke-dasharray: none; stroke-linecap: butt; stroke-dashoffset: 0; stroke-linejoin: miter; stroke-miterlimit: 4; fill: rgb(255,255,255); fill-opacity: 0; fill-rule: nonzero; opacity: 1;" vector-effect="non-scaling-stroke"  transform=" translate(0, -0.0000011111)" d="M -330.57647 -54.53753 C -330.57647 -54.53753 5.89056000000005 190.88136 330.57647 -54.53753" stroke-linecap="round" />
</g>
		<g transform="matrix(1 0 0 1 35.0348882793 -524.7984318677)" id="3YzrLaC4kDYkj6v2NXL0T"  >
<path style="stroke: rgb(255,255,255); stroke-width: 1; stroke-dasharray: none; stroke-linecap: butt; stroke-dashoffset: 0; stroke-linejoin: miter; stroke-miterlimit: 4; fill: rgb(255,255,255); fill-opacity: 0; fill-rule: nonzero; opacity: 1;" vector-effect="non-scaling-stroke"  transform=" translate(0, 0)" d="M 0 0" stroke-linecap="round" />
</g>
		<g transform="matrix(0.9284710147 0 0 0.9284710029 -43.0474807764 -335.5347187733)" id="Ln4J6H7ATtvoa5INFQBk4"  >
<path style="stroke: rgb(255,255,255); stroke-width: 3; stroke-dasharray: none; stroke-linecap: butt; stroke-dashoffset: 0; stroke-linejoin: miter; stroke-miterlimit: 4; fill: rgb(255,255,255); fill-opacity: 0; fill-rule: nonzero; opacity: 1;" vector-effect="non-scaling-stroke"  transform=" translate(-0.0003550907, 0)" d="M 43.7 -199.01 C 43.7 -199.01 -168.16000000000003 25.5 48.93000000000001 199.01" stroke-linecap="round" />
</g>
		<g transform="matrix(-0.9284710147 0 0 0.9284710029 40.5345636678 -335.5347187733)" id="kYoGmoVFbPieAKcdA8dsz"  >
<path style="stroke: rgb(255,255,255); stroke-width: 3; stroke-dasharray: none; stroke-linecap: butt; stroke-dashoffset: 0; stroke-linejoin: miter; stroke-miterlimit: 4; fill: rgb(255,255,255); fill-opacity: 0; fill-rule: nonzero; opacity: 1;" vector-effect="non-scaling-stroke"  transform=" translate(-0.0003550907, 0)" d="M 43.7 -199.01 C 43.7 -199.01 -168.16000000000003 25.5 48.93000000000001 199.01" stroke-linecap="round" />
</g>
		<g transform="matrix(1 0 0 1 26.735617185 -522.6232736418)" id="JTtOgP-6jULlfpLvqmgaW"  >
<path style="stroke: rgb(255,255,255); stroke-width: 1; stroke-dasharray: none; stroke-linecap: butt; stroke-dashoffset: 0; stroke-linejoin: miter; stroke-miterlimit: 4; fill: rgb(255,255,255); fill-opacity: 0; fill-rule: nonzero; opacity: 1;" vector-effect="non-scaling-stroke"  transform=" translate(0, 0)" d="M 0 0" stroke-linecap="round" />
</g>
		<g transform="matrix(1 0 0 1 -71.0211104069 -122.9255247158)" id="b_p7D--RbsQqGUcWEyZEp"  >
<path style="stroke: rgb(255,255,255); stroke-width: 2; stroke-dasharray: none; stroke-linecap: butt; stroke-dashoffset: 0; stroke-linejoin: miter; stroke-miterlimit: 4; fill: rgb(255,255,255); fill-opacity: 0; fill-rule: nonzero; opacity: 1;" vector-effect="non-scaling-stroke"  transform=" translate(0.0008094652, 0)" d="M 70.69 -399.38 C 70.69 -399.38 -250.48000000000002 -36.420000000000016 71.74 399.38" stroke-linecap="round" />
</g>
		<g transform="matrix(-1 0 0 1 69.4643600805 -122.645077757)" id="Cg-BxGBM_uk1s0l7f0621"  >
<path style="stroke: rgb(255,255,255); stroke-width: 2; stroke-dasharray: none; stroke-linecap: butt; stroke-dashoffset: 0; stroke-linejoin: miter; stroke-miterlimit: 4; fill: rgb(255,255,255); fill-opacity: 0; fill-rule: nonzero; opacity: 1;" vector-effect="non-scaling-stroke"  transform=" translate(0.0008094652, 0)" d="M 70.69 -399.38 C 70.69 -399.38 -250.48000000000002 -36.420000000000016 71.74 399.38" stroke-linecap="round" />
</g>
		<g transform="matrix(0.1930499898 0 0 0.1930499898 -0.52 282.7680417128)" id="kjTkeMsdMZv_XycrTxHZk"  >
<path style="stroke: rgb(234,47,132); stroke-width: 0; stroke-dasharray: none; stroke-linecap: butt; stroke-dashoffset: 0; stroke-linejoin: miter; stroke-miterlimit: 4; fill: rgb(145,233,233); fill-rule: nonzero; opacity: 1;" vector-effect="non-scaling-stroke"  transform=" translate(0, 0)" d="M 0 -56.98 C 31.45 -56.98 56.98 -31.449999999999996 56.98 0 C 56.98 31.45 31.449999999999996 56.98 0 56.98 C -31.45 56.98 -56.98 31.449999999999996 -56.98 0 C -56.98 -31.45 -31.449999999999996 -56.98 0 -56.98 z" stroke-linecap="round" />
</g>
		<g transform="matrix(0.26325 0 0 0.26325 -1.52 -155.0051265883)" id="ORRcwDhSr8dZwzQle6wkT"  >
<path style="stroke: rgb(234,47,132); stroke-width: 0; stroke-dasharray: none; stroke-linecap: butt; stroke-dashoffset: 0; stroke-linejoin: miter; stroke-miterlimit: 4; fill: rgb(145,233,233); fill-rule: nonzero; opacity: 1;" vector-effect="non-scaling-stroke"  transform=" translate(0, 0)" d="M 0 -56.98 C 31.45 -56.98 56.98 -31.449999999999996 56.98 0 C 56.98 31.45 31.449999999999996 56.98 0 56.98 C -31.45 56.98 -56.98 31.449999999999996 -56.98 0 C -56.98 -31.45 -31.449999999999996 -56.98 0 -56.98 z" stroke-linecap="round" />
</g>
		<g transform="matrix(0.307125 0 0 0.307125 -1.7783893847 -512.2984318677)" id="DGlHbgLmqeVyi5y4dLW3-"  >
<path style="stroke: rgb(234,47,132); stroke-width: 0; stroke-dasharray: none; stroke-linecap: butt; stroke-dashoffset: 0; stroke-linejoin: miter; stroke-miterlimit: 4; fill: rgb(145,233,233); fill-rule: nonzero; opacity: 1;" vector-effect="non-scaling-stroke"  transform=" translate(0, 0)" d="M 0 -56.98 C 31.45 -56.98 56.98 -31.449999999999996 56.98 0 C 56.98 31.45 31.449999999999996 56.98 0 56.98 C -31.45 56.98 -56.98 31.449999999999996 -56.98 0 C -56.98 -31.45 -31.449999999999996 -56.98 0 -56.98 z" stroke-linecap="round" />
</g>
		<g transform="matrix(0.26325 0 0 0.26325 80.52405 -394.1323472158)" id="6Ve_yMg1uBkGVh47Ix-9h"  >
<path style="stroke: rgb(234,47,132); stroke-width: 0; stroke-dasharray: none; stroke-linecap: butt; stroke-dashoffset: 0; stroke-linejoin: miter; stroke-miterlimit: 4; fill: rgb(145,233,233); fill-rule: nonzero; opacity: 1;" vector-effect="non-scaling-stroke"  transform=" translate(-11.4, 26.59)" d="M 11.4 -83.57 C 42.85 -83.57 68.38 -58.03999999999999 68.38 -26.589999999999996 C 68.38 4.860000000000003 42.849999999999994 30.39 11.399999999999999 30.39 C -20.05 30.39 -45.58 4.859999999999999 -45.58 -26.589999999999996 C -45.58 -58.03999999999999 -20.049999999999997 -83.57 11.399999999999999 -83.57 z" stroke-linecap="round" />
</g>
		<g transform="matrix(0.26325 0 0 0.26325 -80.764 -394.1323472158)" id="5i4rpHBZmIawmopRRoH6q"  >
<path style="stroke: rgb(234,47,132); stroke-width: 0; stroke-dasharray: none; stroke-linecap: butt; stroke-dashoffset: 0; stroke-linejoin: miter; stroke-miterlimit: 4; fill: rgb(145,233,233); fill-rule: nonzero; opacity: 1;" vector-effect="non-scaling-stroke"  transform=" translate(-7.6, 26.59)" d="M 7.6 -83.57 C 39.05 -83.57 64.58 -58.03999999999999 64.58 -26.589999999999996 C 64.58 4.860000000000003 39.05 30.39 7.600000000000001 30.39 C -23.849999999999998 30.39 -49.379999999999995 4.859999999999999 -49.379999999999995 -26.589999999999996 C -49.379999999999995 -58.03999999999999 -23.849999999999994 -83.57 7.600000000000001 -83.57 z" stroke-linecap="round" />
</g>
		<g transform="matrix(0 1 -1 0 807.3771171519 317.9251435635)" id="NuOdQFw5ZmYJzM_E38exn"  >
<path style="stroke: rgb(255,255,255); stroke-width: 1; stroke-dasharray: none; stroke-linecap: butt; stroke-dashoffset: 0; stroke-linejoin: miter; stroke-miterlimit: 4; fill: rgb(255,255,255); fill-opacity: 0; fill-rule: nonzero; opacity: 1;" vector-effect="non-scaling-stroke"  transform=" translate(0, 0)" d="M 0 0" stroke-linecap="round" />
</g>
		<g transform="matrix(0 0.9284710147 -0.9284710029 0 618.1134040575 239.8427745078)" id="7b24vQXGLa9M6RKtcHwXx"  >
<path style="stroke: rgb(255,255,255); stroke-width: 3; stroke-dasharray: none; stroke-linecap: butt; stroke-dashoffset: 0; stroke-linejoin: miter; stroke-miterlimit: 4; fill: rgb(255,255,255); fill-opacity: 0; fill-rule: nonzero; opacity: 1;" vector-effect="non-scaling-stroke"  transform=" translate(-0.0003550907, 0)" d="M 43.7 -199.01 C 43.7 -199.01 -168.16000000000003 25.5 48.93000000000001 199.01" stroke-linecap="round" />
</g>
		<g transform="matrix(0 -0.9284710147 -0.9284710029 0 618.1134040575 323.424818952)" id="TQvHvFvUdwKf_OVNFHqgr"  >
<path style="stroke: rgb(255,255,255); stroke-width: 3; stroke-dasharray: none; stroke-linecap: butt; stroke-dashoffset: 0; stroke-linejoin: miter; stroke-miterlimit: 4; fill: rgb(255,255,255); fill-opacity: 0; fill-rule: nonzero; opacity: 1;" vector-effect="non-scaling-stroke"  transform=" translate(-0.0003550907, 0)" d="M 43.7 -199.01 C 43.7 -199.01 -168.16000000000003 25.5 48.93000000000001 199.01" stroke-linecap="round" />
</g>
		<g transform="matrix(0 1 -1 0 805.201958926 309.6258724692)" id="TW-nMcsbcv9FUUZ5Ylbq0"  >
<path style="stroke: rgb(255,255,255); stroke-width: 1; stroke-dasharray: none; stroke-linecap: butt; stroke-dashoffset: 0; stroke-linejoin: miter; stroke-miterlimit: 4; fill: rgb(255,255,255); fill-opacity: 0; fill-rule: nonzero; opacity: 1;" vector-effect="non-scaling-stroke"  transform=" translate(0, 0)" d="M 0 0" stroke-linecap="round" />
</g>
		<g transform="matrix(0 1 -1 0 405.50421 211.8691448773)" id="i_yTsFyV9b9mVMtJNSN6w"  >
<path style="stroke: rgb(255,255,255); stroke-width: 2; stroke-dasharray: none; stroke-linecap: butt; stroke-dashoffset: 0; stroke-linejoin: miter; stroke-miterlimit: 4; fill: rgb(255,255,255); fill-opacity: 0; fill-rule: nonzero; opacity: 1;" vector-effect="non-scaling-stroke"  transform=" translate(0.0008094652, 0)" d="M 70.69 -399.38 C 70.69 -399.38 -250.48000000000002 -36.420000000000016 71.74 399.38" stroke-linecap="round" />
</g>
		<g transform="matrix(0 -1 -1 0 405.2237630412 352.3546153647)" id="lNSZIn9Sv-YbsU6AJ8ywh"  >
<path style="stroke: rgb(255,255,255); stroke-width: 2; stroke-dasharray: none; stroke-linecap: butt; stroke-dashoffset: 0; stroke-linejoin: miter; stroke-miterlimit: 4; fill: rgb(255,255,255); fill-opacity: 0; fill-rule: nonzero; opacity: 1;" vector-effect="non-scaling-stroke"  transform=" translate(0.0008094652, 0)" d="M 70.69 -399.38 C 70.69 -399.38 -250.48000000000002 -36.420000000000016 71.74 399.38" stroke-linecap="round" />
</g>
		<g transform="matrix(0 0.1930499898 -0.1930499898 0 -0.1893564286 282.3702552842)" id="TTVZ5AbJFCV5dzf4L0XrD"  >
<path style="stroke: rgb(234,47,132); stroke-width: 0; stroke-dasharray: none; stroke-linecap: butt; stroke-dashoffset: 0; stroke-linejoin: miter; stroke-miterlimit: 4; fill: rgb(145,233,233); fill-rule: nonzero; opacity: 1;" vector-effect="non-scaling-stroke"  transform=" translate(0, 0)" d="M 0 -56.98 C 31.45 -56.98 56.98 -31.449999999999996 56.98 0 C 56.98 31.45 31.449999999999996 56.98 0 56.98 C -31.45 56.98 -56.98 31.449999999999996 -56.98 0 C -56.98 -31.45 -31.449999999999996 -56.98 0 -56.98 z" stroke-linecap="round" />
</g>
		<g transform="matrix(0 0.26325 -0.26325 0 437.5838118725 281.3702552842)" id="lhD13CjN_QyaCiNrdoyVZ"  >
<path style="stroke: rgb(234,47,132); stroke-width: 0; stroke-dasharray: none; stroke-linecap: butt; stroke-dashoffset: 0; stroke-linejoin: miter; stroke-miterlimit: 4; fill: rgb(145,233,233); fill-rule: nonzero; opacity: 1;" vector-effect="non-scaling-stroke"  transform=" translate(0, 0)" d="M 0 -56.98 C 31.45 -56.98 56.98 -31.449999999999996 56.98 0 C 56.98 31.45 31.449999999999996 56.98 0 56.98 C -31.45 56.98 -56.98 31.449999999999996 -56.98 0 C -56.98 -31.45 -31.449999999999996 -56.98 0 -56.98 z" stroke-linecap="round" />
</g>
		<g transform="matrix(0 0.307125 -0.307125 0 794.8771171519 281.1118658995)" id="x1MedqbBpw2t-HpJxrMa1"  >
<path style="stroke: rgb(234,47,132); stroke-width: 0; stroke-dasharray: none; stroke-linecap: butt; stroke-dashoffset: 0; stroke-linejoin: miter; stroke-miterlimit: 4; fill: rgb(145,233,233); fill-rule: nonzero; opacity: 1;" vector-effect="non-scaling-stroke"  transform=" translate(0, 0)" d="M 0 -56.98 C 31.45 -56.98 56.98 -31.449999999999996 56.98 0 C 56.98 31.45 31.449999999999996 56.98 0 56.98 C -31.45 56.98 -56.98 31.449999999999996 -56.98 0 C -56.98 -31.45 -31.449999999999996 -56.98 0 -56.98 z" stroke-linecap="round" />
</g>
		<g transform="matrix(0 0.26325 -0.26325 0 676.7110325 363.4143052842)" id="19OxJ9fir1uPjY8t9lmtf"  >
<path style="stroke: rgb(234,47,132); stroke-width: 0; stroke-dasharray: none; stroke-linecap: butt; stroke-dashoffset: 0; stroke-linejoin: miter; stroke-miterlimit: 4; fill: rgb(145,233,233); fill-rule: nonzero; opacity: 1;" vector-effect="non-scaling-stroke"  transform=" translate(-11.4, 26.59)" d="M 11.4 -83.57 C 42.85 -83.57 68.38 -58.03999999999999 68.38 -26.589999999999996 C 68.38 4.860000000000003 42.849999999999994 30.39 11.399999999999999 30.39 C -20.05 30.39 -45.58 4.859999999999999 -45.58 -26.589999999999996 C -45.58 -58.03999999999999 -20.049999999999997 -83.57 11.399999999999999 -83.57 z" stroke-linecap="round" />
</g>
		<g transform="matrix(0 0.26325 -0.26325 0 676.7110325 202.1262552842)" id="po80X_v1L6_X4pPECdvxX"  >
<path style="stroke: rgb(234,47,132); stroke-width: 0; stroke-dasharray: none; stroke-linecap: butt; stroke-dashoffset: 0; stroke-linejoin: miter; stroke-miterlimit: 4; fill: rgb(145,233,233); fill-rule: nonzero; opacity: 1;" vector-effect="non-scaling-stroke"  transform=" translate(-7.6, 26.59)" d="M 7.6 -83.57 C 39.05 -83.57 64.58 -58.03999999999999 64.58 -26.589999999999996 C 64.58 4.860000000000003 39.05 30.39 7.600000000000001 30.39 C -23.849999999999998 30.39 -49.379999999999995 4.859999999999999 -49.379999999999995 -26.589999999999996 C -49.379999999999995 -58.03999999999999 -23.849999999999994 -83.57 7.600000000000001 -83.57 z" stroke-linecap="round" />
</g>
		<g transform="matrix(0 1 1 0 -807.6886871519 317.9251435635)" id="6vrescBulKYzn2U2MsNAq"  >
<path style="stroke: rgb(255,255,255); stroke-width: 1; stroke-dasharray: none; stroke-linecap: butt; stroke-dashoffset: 0; stroke-linejoin: miter; stroke-miterlimit: 4; fill: rgb(255,255,255); fill-opacity: 0; fill-rule: nonzero; opacity: 1;" vector-effect="non-scaling-stroke"  transform=" translate(0, 0)" d="M 0 0" stroke-linecap="round" />
</g>
		<g transform="matrix(0 0.9284710147 0.9284710029 0 -618.4249740575 239.8427745078)" id="Bzq-nlWjZyNEH389vBv4a"  >
<path style="stroke: rgb(255,255,255); stroke-width: 3; stroke-dasharray: none; stroke-linecap: butt; stroke-dashoffset: 0; stroke-linejoin: miter; stroke-miterlimit: 4; fill: rgb(255,255,255); fill-opacity: 0; fill-rule: nonzero; opacity: 1;" vector-effect="non-scaling-stroke"  transform=" translate(-0.0003550907, 0)" d="M 43.7 -199.01 C 43.7 -199.01 -168.16000000000003 25.5 48.93000000000001 199.01" stroke-linecap="round" />
</g>
		<g transform="matrix(0 -0.9284710147 0.9284710029 0 -618.4249740575 323.424818952)" id="3m9y-RgrIEFHJs2oZEa_C"  >
<path style="stroke: rgb(255,255,255); stroke-width: 3; stroke-dasharray: none; stroke-linecap: butt; stroke-dashoffset: 0; stroke-linejoin: miter; stroke-miterlimit: 4; fill: rgb(255,255,255); fill-opacity: 0; fill-rule: nonzero; opacity: 1;" vector-effect="non-scaling-stroke"  transform=" translate(-0.0003550907, 0)" d="M 43.7 -199.01 C 43.7 -199.01 -168.16000000000003 25.5 48.93000000000001 199.01" stroke-linecap="round" />
</g>
		<g transform="matrix(0 1 1 0 -805.513528926 309.6258724692)" id="uXeEZ3nTl32Luq8yAtbzt"  >
<path style="stroke: rgb(255,255,255); stroke-width: 1; stroke-dasharray: none; stroke-linecap: butt; stroke-dashoffset: 0; stroke-linejoin: miter; stroke-miterlimit: 4; fill: rgb(255,255,255); fill-opacity: 0; fill-rule: nonzero; opacity: 1;" vector-effect="non-scaling-stroke"  transform=" translate(0, 0)" d="M 0 0" stroke-linecap="round" />
</g>
		<g transform="matrix(0 1 1 0 -405.81578 211.8691448773)" id="YLPUABGHXMsAjufhcePpH"  >
<path style="stroke: rgb(255,255,255); stroke-width: 2; stroke-dasharray: none; stroke-linecap: butt; stroke-dashoffset: 0; stroke-linejoin: miter; stroke-miterlimit: 4; fill: rgb(255,255,255); fill-opacity: 0; fill-rule: nonzero; opacity: 1;" vector-effect="non-scaling-stroke"  transform=" translate(0.0008094652, 0)" d="M 70.69 -399.38 C 70.69 -399.38 -250.48000000000002 -36.420000000000016 71.74 399.38" stroke-linecap="round" />
</g>
		<g transform="matrix(0 -1 1 0 -405.5353330412 352.3546153647)" id="knaD_LzPxDq8GQWtpyI3U"  >
<path style="stroke: rgb(255,255,255); stroke-width: 2; stroke-dasharray: none; stroke-linecap: butt; stroke-dashoffset: 0; stroke-linejoin: miter; stroke-miterlimit: 4; fill: rgb(255,255,255); fill-opacity: 0; fill-rule: nonzero; opacity: 1;" vector-effect="non-scaling-stroke"  transform=" translate(0.0008094652, 0)" d="M 70.69 -399.38 C 70.69 -399.38 -250.48000000000002 -36.420000000000016 71.74 399.38" stroke-linecap="round" />
</g>
		<g transform="matrix(0 0.1930499898 0.1930499898 0 -0.1222135714 282.3702552842)" id="_D_03jU3MHMaz8_vuqvIk"  >
<path style="stroke: rgb(234,47,132); stroke-width: 0; stroke-dasharray: none; stroke-linecap: butt; stroke-dashoffset: 0; stroke-linejoin: miter; stroke-miterlimit: 4; fill: rgb(145,233,233); fill-rule: nonzero; opacity: 1;" vector-effect="non-scaling-stroke"  transform=" translate(0, 0)" d="M 0 -56.98 C 31.45 -56.98 56.98 -31.449999999999996 56.98 0 C 56.98 31.45 31.449999999999996 56.98 0 56.98 C -31.45 56.98 -56.98 31.449999999999996 -56.98 0 C -56.98 -31.45 -31.449999999999996 -56.98 0 -56.98 z" stroke-linecap="round" />
</g>
		<g transform="matrix(0 0.26325 0.26325 0 -437.8953818725 281.3702552842)" id="miD_76goLrfdyXQKdCdRm"  >
<path style="stroke: rgb(234,47,132); stroke-width: 0; stroke-dasharray: none; stroke-linecap: butt; stroke-dashoffset: 0; stroke-linejoin: miter; stroke-miterlimit: 4; fill: rgb(145,233,233); fill-rule: nonzero; opacity: 1;" vector-effect="non-scaling-stroke"  transform=" translate(0, 0)" d="M 0 -56.98 C 31.45 -56.98 56.98 -31.449999999999996 56.98 0 C 56.98 31.45 31.449999999999996 56.98 0 56.98 C -31.45 56.98 -56.98 31.449999999999996 -56.98 0 C -56.98 -31.45 -31.449999999999996 -56.98 0 -56.98 z" stroke-linecap="round" />
</g>
		<g transform="matrix(0 0.307125 0.307125 0 -795.1886871519 281.1118658995)" id="OipMxz002YB0Ji3aH5YzD"  >
<path style="stroke: rgb(234,47,132); stroke-width: 0; stroke-dasharray: none; stroke-linecap: butt; stroke-dashoffset: 0; stroke-linejoin: miter; stroke-miterlimit: 4; fill: rgb(145,233,233); fill-rule: nonzero; opacity: 1;" vector-effect="non-scaling-stroke"  transform=" translate(0, 0)" d="M 0 -56.98 C 31.45 -56.98 56.98 -31.449999999999996 56.98 0 C 56.98 31.45 31.449999999999996 56.98 0 56.98 C -31.45 56.98 -56.98 31.449999999999996 -56.98 0 C -56.98 -31.45 -31.449999999999996 -56.98 0 -56.98 z" stroke-linecap="round" />
</g>
		<g transform="matrix(0 0.26325 0.26325 0 -677.0226025 363.4143052842)" id="XEYJhEmjI9Wk-jNiQaL_0"  >
<path style="stroke: rgb(234,47,132); stroke-width: 0; stroke-dasharray: none; stroke-linecap: butt; stroke-dashoffset: 0; stroke-linejoin: miter; stroke-miterlimit: 4; fill: rgb(145,233,233); fill-rule: nonzero; opacity: 1;" vector-effect="non-scaling-stroke"  transform=" translate(-11.4, 26.59)" d="M 11.4 -83.57 C 42.85 -83.57 68.38 -58.03999999999999 68.38 -26.589999999999996 C 68.38 4.860000000000003 42.849999999999994 30.39 11.399999999999999 30.39 C -20.05 30.39 -45.58 4.859999999999999 -45.58 -26.589999999999996 C -45.58 -58.03999999999999 -20.049999999999997 -83.57 11.399999999999999 -83.57 z" stroke-linecap="round" />
</g>
		<g transform="matrix(0 0.26325 0.26325 0 -677.0226025 202.1262552842)" id="GoIq_IGJ_H4OagKBn0oHj"  >
<path style="stroke: rgb(234,47,132); stroke-width: 0; stroke-dasharray: none; stroke-linecap: butt; stroke-dashoffset: 0; stroke-linejoin: miter; stroke-miterlimit: 4; fill: rgb(145,233,233); fill-rule: nonzero; opacity: 1;" vector-effect="non-scaling-stroke"  transform=" translate(-7.6, 26.59)" d="M 7.6 -83.57 C 39.05 -83.57 64.58 -58.03999999999999 64.58 -26.589999999999996 C 64.58 4.860000000000003 39.05 30.39 7.600000000000001 30.39 C -23.849999999999998 30.39 -49.379999999999995 4.859999999999999 -49.379999999999995 -26.589999999999996 C -49.379999999999995 -58.03999999999999 -23.849999999999994 -83.57 7.600000000000001 -83.57 z" stroke-linecap="round" />
</g>
		<g transform="matrix(-0.7071067812 0.7071067812 0.7071067812 0.7071067812 -596.7171727772 -263.3267391873)" id="FFZUXsZ3tQyg0vX42OrdL"  >
<path style="stroke: rgb(255,255,255); stroke-width: 1; stroke-dasharray: none; stroke-linecap: butt; stroke-dashoffset: 0; stroke-linejoin: miter; stroke-miterlimit: 4; fill: rgb(255,255,255); fill-opacity: 0; fill-rule: nonzero; opacity: 1;" vector-effect="non-scaling-stroke"  transform=" translate(0, 0)" d="M 0 0" stroke-linecap="round" />
</g>
		<g transform="matrix(-0.6565281506 0.6565281506 0.6565281423 0.6565281423 -407.6749451617 -184.7096568746)" id="qVh_knzPmd1tboAHhsPqM"  >
<path style="stroke: rgb(255,255,255); stroke-width: 3; stroke-dasharray: none; stroke-linecap: butt; stroke-dashoffset: 0; stroke-linejoin: miter; stroke-miterlimit: 4; fill: rgb(255,255,255); fill-opacity: 0; fill-rule: nonzero; opacity: 1;" vector-effect="non-scaling-stroke"  transform=" translate(-0.0003550907, 0)" d="M 43.7 -199.01 C 43.7 -199.01 -168.16000000000003 25.5 48.93000000000001 199.01" stroke-linecap="round" />
</g>
		<g transform="matrix(0.6565281506 -0.6565281506 0.6565281423 0.6565281423 -466.7763755746 -125.6082264616)" id="-dEpcRyf-IAlmUOhsgWja"  >
<path style="stroke: rgb(255,255,255); stroke-width: 3; stroke-dasharray: none; stroke-linecap: butt; stroke-dashoffset: 0; stroke-linejoin: miter; stroke-miterlimit: 4; fill: rgb(255,255,255); fill-opacity: 0; fill-rule: nonzero; opacity: 1;" vector-effect="non-scaling-stroke"  transform=" translate(-0.0003550907, 0)" d="M 43.7 -199.01 C 43.7 -199.01 -168.16000000000003 25.5 48.93000000000001 199.01" stroke-linecap="round" />
</g>
		<g transform="matrix(-0.7071067812 0.7071067812 0.7071067812 0.7071067812 -589.3106327757 -267.6571409254)" id="AKbwfANqrUEm8YCElWA7V"  >
<path style="stroke: rgb(255,255,255); stroke-width: 1; stroke-dasharray: none; stroke-linecap: butt; stroke-dashoffset: 0; stroke-linejoin: miter; stroke-miterlimit: 4; fill: rgb(255,255,255); fill-opacity: 0; fill-rule: nonzero; opacity: 1;" vector-effect="non-scaling-stroke"  transform=" translate(0, 0)" d="M 0 0" stroke-linecap="round" />
</g>
		<g transform="matrix(-0.7071067812 0.7071067812 0.7071067812 0.7071067812 -237.5571990916 -54.1525972176)" id="tUh8Ra4i10RWRLeEPYdRv"  >
<path style="stroke: rgb(255,255,255); stroke-width: 2; stroke-dasharray: none; stroke-linecap: butt; stroke-dashoffset: 0; stroke-linejoin: miter; stroke-miterlimit: 4; fill: rgb(255,255,255); fill-opacity: 0; fill-rule: nonzero; opacity: 1;" vector-effect="non-scaling-stroke"  transform=" translate(0.0008094652, 0)" d="M 70.69 -399.38 C 70.69 -399.38 -250.48000000000002 -36.420000000000016 71.74 399.38" stroke-linecap="round" />
</g>
		<g transform="matrix(0.7071067812 -0.7071067812 0.7071067812 0.7071067812 -336.697121987 45.3839375705)" id="xlwfBkymaGV-iJKq3oREA"  >
<path style="stroke: rgb(255,255,255); stroke-width: 2; stroke-dasharray: none; stroke-linecap: butt; stroke-dashoffset: 0; stroke-linejoin: miter; stroke-miterlimit: 4; fill: rgb(255,255,255); fill-opacity: 0; fill-rule: nonzero; opacity: 1;" vector-effect="non-scaling-stroke"  transform=" translate(0.0008094652, 0)" d="M 70.69 -399.38 C 70.69 -399.38 -250.48000000000002 -36.420000000000016 71.74 399.38" stroke-linecap="round" />
</g>
		<g transform="matrix(-0.1365069569 0.1365069569 0.1365069569 0.1365069569 -0.5403404316 282.5678879442)" id="jb-Cf02C9egiCKX3NSpug"  >
<path style="stroke: rgb(234,47,132); stroke-width: 0; stroke-dasharray: none; stroke-linecap: butt; stroke-dashoffset: 0; stroke-linejoin: miter; stroke-miterlimit: 4; fill: rgb(145,233,233); fill-rule: nonzero; opacity: 1;" vector-effect="non-scaling-stroke"  transform=" translate(0, 0)" d="M 0 -56.98 C 31.45 -56.98 56.98 -31.449999999999996 56.98 0 C 56.98 31.45 31.449999999999996 56.98 0 56.98 C -31.45 56.98 -56.98 31.449999999999996 -56.98 0 C -56.98 -31.45 -31.449999999999996 -56.98 0 -56.98 z" stroke-linecap="round" />
</g>
		<g transform="matrix(-0.1861458601 0.1861458601 0.1861458601 0.1861458601 -309.3856095835 -27.6915947702)" id="O-68KNL0JFKHDbSkeLb9u"  >
<path style="stroke: rgb(234,47,132); stroke-width: 0; stroke-dasharray: none; stroke-linecap: butt; stroke-dashoffset: 0; stroke-linejoin: miter; stroke-miterlimit: 4; fill: rgb(145,233,233); fill-rule: nonzero; opacity: 1;" vector-effect="non-scaling-stroke"  transform=" translate(0, 0)" d="M 0 -56.98 C 31.45 -56.98 56.98 -31.449999999999996 56.98 0 C 56.98 31.45 31.449999999999996 56.98 0 56.98 C -31.45 56.98 -56.98 31.449999999999996 -56.98 0 C -56.98 -31.45 -31.449999999999996 -56.98 0 -56.98 z" stroke-linecap="round" />
</g>
		<g transform="matrix(-0.2171701702 0.2171701702 0.2171701702 0.2171701702 -561.8474197378 -280.5188226967)" id="P6JNW5bBLgjOAQTvc8en3"  >
<path style="stroke: rgb(234,47,132); stroke-width: 0; stroke-dasharray: none; stroke-linecap: butt; stroke-dashoffset: 0; stroke-linejoin: miter; stroke-miterlimit: 4; fill: rgb(145,233,233); fill-rule: nonzero; opacity: 1;" vector-effect="non-scaling-stroke"  transform=" translate(0, 0)" d="M 0 -56.98 C 31.45 -56.98 56.98 -31.449999999999996 56.98 0 C 56.98 31.45 31.449999999999996 56.98 0 56.98 C -31.45 56.98 -56.98 31.449999999999996 -56.98 0 C -56.98 -31.45 -31.449999999999996 -56.98 0 -56.98 z" stroke-linecap="round" />
</g>
		<g transform="matrix(-0.1861458601 0.1861458601 0.1861458601 0.1861458601 -536.4879929708 -138.7661699333)" id="GJSfNZ7lRDUP6IkPuiDJD"  >
<path style="stroke: rgb(234,47,132); stroke-width: 0; stroke-dasharray: none; stroke-linecap: butt; stroke-dashoffset: 0; stroke-linejoin: miter; stroke-miterlimit: 4; fill: rgb(145,233,233); fill-rule: nonzero; opacity: 1;" vector-effect="non-scaling-stroke"  transform=" translate(-11.4, 26.59)" d="M 11.4 -83.57 C 42.85 -83.57 68.38 -58.03999999999999 68.38 -26.589999999999996 C 68.38 4.860000000000003 42.849999999999994 30.39 11.399999999999999 30.39 C -20.05 30.39 -45.58 4.859999999999999 -45.58 -26.589999999999996 C -45.58 -58.03999999999999 -20.049999999999997 -83.57 11.399999999999999 -83.57 z" stroke-linecap="round" />
</g>
		<g transform="matrix(-0.1861458601 0.1861458601 0.1861458601 0.1861458601 -422.4401190893 -252.8140438148)" id="gBwDrWzHUlWZc5vkF4l22"  >
<path style="stroke: rgb(234,47,132); stroke-width: 0; stroke-dasharray: none; stroke-linecap: butt; stroke-dashoffset: 0; stroke-linejoin: miter; stroke-miterlimit: 4; fill: rgb(145,233,233); fill-rule: nonzero; opacity: 1;" vector-effect="non-scaling-stroke"  transform=" translate(-7.6, 26.59)" d="M 7.6 -83.57 C 39.05 -83.57 64.58 -58.03999999999999 64.58 -26.589999999999996 C 64.58 4.860000000000003 39.05 30.39 7.600000000000001 30.39 C -23.849999999999998 30.39 -49.379999999999995 4.859999999999999 -49.379999999999995 -26.589999999999996 C -49.379999999999995 -58.03999999999999 -23.849999999999994 -83.57 7.600000000000001 -83.57 z" stroke-linecap="round" />
</g>
		<g transform="matrix(0.7071067812 0.7071067812 -0.7071067812 0.7071067812 595.8148781395 -263.8774638249)" id="Jo64ir7HxL01m5ai5-Jl_"  >
<path style="stroke: rgb(255,255,255); stroke-width: 1; stroke-dasharray: none; stroke-linecap: butt; stroke-dashoffset: 0; stroke-linejoin: miter; stroke-miterlimit: 4; fill: rgb(255,255,255); fill-opacity: 0; fill-rule: nonzero; opacity: 1;" vector-effect="non-scaling-stroke"  transform=" translate(0, 0)" d="M 0 0" stroke-linecap="round" />
</g>
		<g transform="matrix(0.6565281506 0.6565281506 -0.6565281423 0.6565281423 406.772650524 -185.2603815122)" id="bwxRTuKMznrAZqEzcoZxb"  >
<path style="stroke: rgb(255,255,255); stroke-width: 3; stroke-dasharray: none; stroke-linecap: butt; stroke-dashoffset: 0; stroke-linejoin: miter; stroke-miterlimit: 4; fill: rgb(255,255,255); fill-opacity: 0; fill-rule: nonzero; opacity: 1;" vector-effect="non-scaling-stroke"  transform=" translate(-0.0003550907, 0)" d="M 43.7 -199.01 C 43.7 -199.01 -168.16000000000003 25.5 48.93000000000001 199.01" stroke-linecap="round" />
</g>
		<g transform="matrix(-0.6565281506 -0.6565281506 -0.6565281423 0.6565281423 465.8740809369 -126.1589510992)" id="H1b4Sh2FkOJ3CxX_94Dq-"  >
<path style="stroke: rgb(255,255,255); stroke-width: 3; stroke-dasharray: none; stroke-linecap: butt; stroke-dashoffset: 0; stroke-linejoin: miter; stroke-miterlimit: 4; fill: rgb(255,255,255); fill-opacity: 0; fill-rule: nonzero; opacity: 1;" vector-effect="non-scaling-stroke"  transform=" translate(-0.0003550907, 0)" d="M 43.7 -199.01 C 43.7 -199.01 -168.16000000000003 25.5 48.93000000000001 199.01" stroke-linecap="round" />
</g>
		<g transform="matrix(0.7071067812 0.7071067812 -0.7071067812 0.7071067812 588.408338138 -268.207865563)" id="zCnqZvMXkTOE5SNaLbIzD"  >
<path style="stroke: rgb(255,255,255); stroke-width: 1; stroke-dasharray: none; stroke-linecap: butt; stroke-dashoffset: 0; stroke-linejoin: miter; stroke-miterlimit: 4; fill: rgb(255,255,255); fill-opacity: 0; fill-rule: nonzero; opacity: 1;" vector-effect="non-scaling-stroke"  transform=" translate(0, 0)" d="M 0 0" stroke-linecap="round" />
</g>
		<g transform="matrix(0.7071067812 0.7071067812 -0.7071067812 0.7071067812 236.6549044539 -54.7033218552)" id="rg5T3o8JiK8PfJoZTnZRo"  >
<path style="stroke: rgb(255,255,255); stroke-width: 2; stroke-dasharray: none; stroke-linecap: butt; stroke-dashoffset: 0; stroke-linejoin: miter; stroke-miterlimit: 4; fill: rgb(255,255,255); fill-opacity: 0; fill-rule: nonzero; opacity: 1;" vector-effect="non-scaling-stroke"  transform=" translate(0.0008094652, 0)" d="M 70.69 -399.38 C 70.69 -399.38 -250.48000000000002 -36.420000000000016 71.74 399.38" stroke-linecap="round" />
</g>
		<g transform="matrix(-0.7071067812 -0.7071067812 -0.7071067812 0.7071067812 335.7948273493 44.8332129329)" id="UdwNDNylQbUEbbg4WVLIC"  >
<path style="stroke: rgb(255,255,255); stroke-width: 2; stroke-dasharray: none; stroke-linecap: butt; stroke-dashoffset: 0; stroke-linejoin: miter; stroke-miterlimit: 4; fill: rgb(255,255,255); fill-opacity: 0; fill-rule: nonzero; opacity: 1;" vector-effect="non-scaling-stroke"  transform=" translate(0.0008094652, 0)" d="M 70.69 -399.38 C 70.69 -399.38 -250.48000000000002 -36.420000000000016 71.74 399.38" stroke-linecap="round" />
</g>
		<g transform="matrix(0.1365069569 0.1365069569 -0.1365069569 0.1365069569 -0.3619542061 282.0171633066)" id="Ab-sCXy1PevL7j-PPRJ7L"  >
<path style="stroke: rgb(234,47,132); stroke-width: 0; stroke-dasharray: none; stroke-linecap: butt; stroke-dashoffset: 0; stroke-linejoin: miter; stroke-miterlimit: 4; fill: rgb(145,233,233); fill-rule: nonzero; opacity: 1;" vector-effect="non-scaling-stroke"  transform=" translate(0, 0)" d="M 0 -56.98 C 31.45 -56.98 56.98 -31.449999999999996 56.98 0 C 56.98 31.45 31.449999999999996 56.98 0 56.98 C -31.45 56.98 -56.98 31.449999999999996 -56.98 0 C -56.98 -31.45 -31.449999999999996 -56.98 0 -56.98 z" stroke-linecap="round" />
</g>
		<g transform="matrix(0.1861458601 0.1861458601 -0.1861458601 0.1861458601 308.4833149458 -28.2423194078)" id="lh46uo2oZ7N1nB-hikOR-"  >
<path style="stroke: rgb(234,47,132); stroke-width: 0; stroke-dasharray: none; stroke-linecap: butt; stroke-dashoffset: 0; stroke-linejoin: miter; stroke-miterlimit: 4; fill: rgb(145,233,233); fill-rule: nonzero; opacity: 1;" vector-effect="non-scaling-stroke"  transform=" translate(0, 0)" d="M 0 -56.98 C 31.45 -56.98 56.98 -31.449999999999996 56.98 0 C 56.98 31.45 31.449999999999996 56.98 0 56.98 C -31.45 56.98 -56.98 31.449999999999996 -56.98 0 C -56.98 -31.45 -31.449999999999996 -56.98 0 -56.98 z" stroke-linecap="round" />
</g>
		<g transform="matrix(0.2171701702 0.2171701702 -0.2171701702 0.2171701702 560.9451251001 -281.0695473343)" id="lEVg7eDtk4fQLGqK1xTnl"  >
<path style="stroke: rgb(234,47,132); stroke-width: 0; stroke-dasharray: none; stroke-linecap: butt; stroke-dashoffset: 0; stroke-linejoin: miter; stroke-miterlimit: 4; fill: rgb(145,233,233); fill-rule: nonzero; opacity: 1;" vector-effect="non-scaling-stroke"  transform=" translate(0, 0)" d="M 0 -56.98 C 31.45 -56.98 56.98 -31.449999999999996 56.98 0 C 56.98 31.45 31.449999999999996 56.98 0 56.98 C -31.45 56.98 -56.98 31.449999999999996 -56.98 0 C -56.98 -31.45 -31.449999999999996 -56.98 0 -56.98 z" stroke-linecap="round" />
</g>
		<g transform="matrix(0.1861458601 0.1861458601 -0.1861458601 0.1861458601 535.5856983331 -139.3168945709)" id="RU_XksiykuCUXhI7uWCsX"  >
<path style="stroke: rgb(234,47,132); stroke-width: 0; stroke-dasharray: none; stroke-linecap: butt; stroke-dashoffset: 0; stroke-linejoin: miter; stroke-miterlimit: 4; fill: rgb(145,233,233); fill-rule: nonzero; opacity: 1;" vector-effect="non-scaling-stroke"  transform=" translate(-11.4, 26.59)" d="M 11.4 -83.57 C 42.85 -83.57 68.38 -58.03999999999999 68.38 -26.589999999999996 C 68.38 4.860000000000003 42.849999999999994 30.39 11.399999999999999 30.39 C -20.05 30.39 -45.58 4.859999999999999 -45.58 -26.589999999999996 C -45.58 -58.03999999999999 -20.049999999999997 -83.57 11.399999999999999 -83.57 z" stroke-linecap="round" />
</g>
		<g transform="matrix(0.1861458601 0.1861458601 -0.1861458601 0.1861458601 421.5378244516 -253.3647684524)" id="a7j5UYkZ3o3XphWk4H8Ay"  >
<path style="stroke: rgb(234,47,132); stroke-width: 0; stroke-dasharray: none; stroke-linecap: butt; stroke-dashoffset: 0; stroke-linejoin: miter; stroke-miterlimit: 4; fill: rgb(145,233,233); fill-rule: nonzero; opacity: 1;" vector-effect="non-scaling-stroke"  transform=" translate(-7.6, 26.59)" d="M 7.6 -83.57 C 39.05 -83.57 64.58 -58.03999999999999 64.58 -26.589999999999996 C 64.58 4.860000000000003 39.05 30.39 7.600000000000001 30.39 C -23.849999999999998 30.39 -49.379999999999995 4.859999999999999 -49.379999999999995 -26.589999999999996 C -49.379999999999995 -58.03999999999999 -23.849999999999994 -83.57 7.600000000000001 -83.57 z" stroke-linecap="round" />
</g>
		<g transform="matrix(0.7057662888 0 0 0.7057662888 136.90497952 -50.5124532661)" id="NJaD3BZikcRdKRZOMXf10"  >
<path style="stroke: rgb(185,81,151); stroke-width: 0; stroke-dasharray: none; stroke-linecap: butt; stroke-dashoffset: 0; stroke-linejoin: miter; stroke-miterlimit: 4; fill: rgb(145,233,233); fill-rule: nonzero; opacity: 1;" vector-effect="non-scaling-stroke"  transform=" translate(0, 0)" d="M 0 -21.73913 C 12 -21.73913 21.73913 -12 21.73913 0 C 21.73913 12 12 21.73913 0 21.73913 C -12 21.73913 -21.73913 12 -21.73913 0 C -21.73913 -12 -12 -21.73913 0 -21.73913 z" stroke-linecap="round" />
</g>
		<g transform="matrix(0.7057662888 0 0 0.7057662888 -140.59502048 -50.5124503135)" id="9RobX2_1pPmLx5DU78XeT"  >
<path style="stroke: rgb(185,81,151); stroke-width: 0; stroke-dasharray: none; stroke-linecap: butt; stroke-dashoffset: 0; stroke-linejoin: miter; stroke-miterlimit: 4; fill: rgb(145,233,233); fill-rule: nonzero; opacity: 1;" vector-effect="non-scaling-stroke"  transform=" translate(0, 0)" d="M 0 -21.73913 C 12 -21.73913 21.73913 -12 21.73913 0 C 21.73913 12 12 21.73913 0 21.73913 C -12 21.73913 -21.73913 12 -21.73913 0 C -21.73913 -12 -12 -21.73913 0 -21.73913 z" stroke-linecap="round" />
</g>
		<g transform="matrix(0.7057662888 0 0 0.7057662888 328.5716461867 145.3208800673)" id="JoPhNhO3EP1OmeDW4naag"  >
<path style="stroke: rgb(185,81,151); stroke-width: 0; stroke-dasharray: none; stroke-linecap: butt; stroke-dashoffset: 0; stroke-linejoin: miter; stroke-miterlimit: 4; fill: rgb(145,233,233); fill-rule: nonzero; opacity: 1;" vector-effect="non-scaling-stroke"  transform=" translate(0, 0)" d="M 0 -21.73913 C 12 -21.73913 21.73913 -12 21.73913 0 C 21.73913 12 12 21.73913 0 21.73913 C -12 21.73913 -21.73913 12 -21.73913 0 C -21.73913 -12 -12 -21.73913 0 -21.73913 z" stroke-linecap="round" />
</g>
		<g transform="matrix(0.7057662888 0 0 0.7057662888 328.5716461867 415.7159401824)" id="i4FOal1br5Bza5nhxmFI4"  >
<path style="stroke: rgb(185,81,151); stroke-width: 0; stroke-dasharray: none; stroke-linecap: butt; stroke-dashoffset: 0; stroke-linejoin: miter; stroke-miterlimit: 4; fill: rgb(145,233,233); fill-rule: nonzero; opacity: 1;" vector-effect="non-scaling-stroke"  transform=" translate(0, 0)" d="M 0 -21.73913 C 12 -21.73913 21.73913 -12 21.73913 0 C 21.73913 12 12 21.73913 0 21.73913 C -12 21.73913 -21.73913 12 -21.73913 0 C -21.73913 -12 -12 -21.73913 0 -21.73913 z" stroke-linecap="round" />
</g>
		<g transform="matrix(0.7057662888 0 0 0.7057662888 -332.5812949898 145.3208800673)" id="57VX0ps9qSnAOHCjNVSYl"  >
<path style="stroke: rgb(185,81,151); stroke-width: 0; stroke-dasharray: none; stroke-linecap: butt; stroke-dashoffset: 0; stroke-linejoin: miter; stroke-miterlimit: 4; fill: rgb(145,233,233); fill-rule: nonzero; opacity: 1;" vector-effect="non-scaling-stroke"  transform=" translate(0, 0)" d="M 0 -21.73913 C 12 -21.73913 21.73913 -12 21.73913 0 C 21.73913 12 12 21.73913 0 21.73913 C -12 21.73913 -21.73913 12 -21.73913 0 C -21.73913 -12 -12 -21.73913 0 -21.73913 z" stroke-linecap="round" />
</g>
		<g transform="matrix(0.7057662888 0 0 0.7057662888 -332.5812949898 420.0267624202)" id="10f9fOHf0LPQnDLNBOqL8"  >
<path style="stroke: rgb(185,81,151); stroke-width: 0; stroke-dasharray: none; stroke-linecap: butt; stroke-dashoffset: 0; stroke-linejoin: miter; stroke-miterlimit: 4; fill: rgb(145,233,233); fill-rule: nonzero; opacity: 1;" vector-effect="non-scaling-stroke"  transform=" translate(0, 0)" d="M 0 -21.73913 C 12 -21.73913 21.73913 -12 21.73913 0 C 21.73913 12 12 21.73913 0 21.73913 C -12 21.73913 -21.73913 12 -21.73913 0 C -21.73913 -12 -12 -21.73913 0 -21.73913 z" stroke-linecap="round" />
</g>
</g>
</g>
</svg>