<?xml version="1.0" encoding="UTF-8" standalone="no" ?>
<!DOCTYPE svg PUBLIC "-//W3C//DTD SVG 1.1//EN" "http://www.w3.org/Graphics/SVG/1.1/DTD/svg11.dtd">
<svg xmlns="http://www.w3.org/2000/svg" xmlns:xlink="http://www.w3.org/1999/xlink" version="1.1" width="291.5551" height="820" viewBox="0 0 291.5551 820" xml:space="preserve">
<desc>Created with Fabric.js 5.3.0</desc>
<defs>
</defs>
<g transform="matrix(1 0 0 1 180.5548882793 4.9870978481)" id="5JQW1cS5ziN73MZEc8nqg"  >
<path style="stroke: rgb(0,0,0); stroke-width: 1; stroke-dasharray: none; stroke-linecap: butt; stroke-dashoffset: 0; stroke-linejoin: miter; stroke-miterlimit: 4; fill: rgb(255,255,255); fill-opacity: 0; fill-rule: nonzero; opacity: 1;" vector-effect="non-scaling-stroke"  transform=" translate(0, 0)" d="M 0 0" stroke-linecap="round" />
</g>
<g transform="matrix(0.9284710147 0 0 0.9284710029 99.4721946121 189.2508109425)" id="YVRksPs1isaLFTQ21YIvs"  >
<path style="stroke: rgb(0,0,0); stroke-width: 5; stroke-dasharray: none; stroke-linecap: butt; stroke-dashoffset: 0; stroke-linejoin: miter; stroke-miterlimit: 4; fill: rgb(255,255,255); fill-opacity: 0; fill-rule: nonzero; opacity: 1;" vector-effect="non-scaling-stroke"  transform=" translate(-0.0000054713, 0)" d="M 43.69764 -199.00888 C 43.69764 -199.00888 -168.16303 25.504609999999985 48.93099 199.00888" stroke-linecap="round" />
</g>
<g transform="matrix(-0.9284710147 0 0 0.9284710029 187.0548882793 189.2508109425)" id="x9634QKTmxRrrxuy404Vj"  >
<path style="stroke: rgb(0,0,0); stroke-width: 5; stroke-dasharray: none; stroke-linecap: butt; stroke-dashoffset: 0; stroke-linejoin: miter; stroke-miterlimit: 4; fill: rgb(255,255,255); fill-opacity: 0; fill-rule: nonzero; opacity: 1;" vector-effect="non-scaling-stroke"  transform=" translate(-0.0000054713, 0)" d="M 43.69764 -199.00888 C 43.69764 -199.00888 -168.16303 25.504609999999985 48.93099 199.00888" stroke-linecap="round" />
</g>
<g transform="matrix(1 0 0 1 172.255617185 7.162256074)" id="73HC1bp0N-_X2HSSljCnB"  >
<path style="stroke: rgb(0,0,0); stroke-width: 1; stroke-dasharray: none; stroke-linecap: butt; stroke-dashoffset: 0; stroke-linejoin: miter; stroke-miterlimit: 4; fill: rgb(255,255,255); fill-opacity: 0; fill-rule: nonzero; opacity: 1;" vector-effect="non-scaling-stroke"  transform=" translate(0, 0)" d="M 0 0" stroke-linecap="round" />
</g>
<g transform="matrix(1 0 0 1 74.499671287 401.8595519919)" id="EuXO7-WldDuXbkjOCt-IS"  >
<path style="stroke: rgb(0,0,0); stroke-width: 3; stroke-dasharray: none; stroke-linecap: butt; stroke-dashoffset: 0; stroke-linejoin: miter; stroke-miterlimit: 4; fill: rgb(255,255,255); fill-opacity: 0; fill-rule: nonzero; opacity: 1;" vector-effect="non-scaling-stroke"  transform=" translate(-9.417e-7, 0.000005)" d="M 70.68705 -399.38272 C 70.68705 -399.38272 -250.48028 -36.41976 71.74194 399.38271000000003" stroke-linecap="round" />
</g>
<g transform="matrix(-1 0 0 1 214.9835496736 402.1404469588)" id="cpi9gjJJAJqOBiaHJPkn5"  >
<path style="stroke: rgb(0,0,0); stroke-width: 3; stroke-dasharray: none; stroke-linecap: butt; stroke-dashoffset: 0; stroke-linejoin: miter; stroke-miterlimit: 4; fill: rgb(255,255,255); fill-opacity: 0; fill-rule: nonzero; opacity: 1;" vector-effect="non-scaling-stroke"  transform=" translate(-9.417e-7, 0.000005)" d="M 70.68705 -399.38272 C 70.68705 -399.38272 -250.48028 -36.41976 71.74194 399.38271000000003" stroke-linecap="round" />
</g>
<g transform="matrix(0.1930499898 0 0 0.1930499898 145 808.5535714286)" id="FDBSKwJpnEzbOCjRsuOO8"  >
<path style="stroke: rgb(234,47,132); stroke-width: 0; stroke-dasharray: none; stroke-linecap: butt; stroke-dashoffset: 0; stroke-linejoin: miter; stroke-miterlimit: 4; fill: rgb(145,233,233); fill-rule: nonzero; opacity: 1;" vector-effect="non-scaling-stroke"  transform=" translate(0, 0)" d="M 0 -56.98006 C 31.45299 -56.98006 56.98006 -31.452990000000003 56.98006 0 C 56.98006 31.45299 31.452990000000003 56.98006 0 56.98006 C -31.45299 56.98006 -56.98006 31.452990000000003 -56.98006 0 C -56.98006 -31.45299 -31.452990000000003 -56.98006 0 -56.98006 z" stroke-linecap="round" />
</g>
<g transform="matrix(0.1755 0 0 0.1755 144 369.7804031275)" id="JH5_ENEmVm5Cq2jyJDYtp"  >
<path style="stroke: rgb(234,47,132); stroke-width: 0; stroke-dasharray: none; stroke-linecap: butt; stroke-dashoffset: 0; stroke-linejoin: miter; stroke-miterlimit: 4; fill: rgb(145,233,233); fill-rule: nonzero; opacity: 1;" vector-effect="non-scaling-stroke"  transform=" translate(0, 0)" d="M 0 -56.98006 C 31.45299 -56.98006 56.98006 -31.452990000000003 56.98006 0 C 56.98006 31.45299 31.452990000000003 56.98006 0 56.98006 C -31.45299 56.98006 -56.98006 31.452990000000003 -56.98006 0 C -56.98006 -31.45299 -31.452990000000003 -56.98006 0 -56.98006 z" stroke-linecap="round" />
</g>
<g transform="matrix(0.1755 0 0 0.1755 143.7416106153 9.4870978481)" id="Xeoa1Pcex6K9YdxGqS-ob"  >
<path style="stroke: rgb(234,47,132); stroke-width: 0; stroke-dasharray: none; stroke-linecap: butt; stroke-dashoffset: 0; stroke-linejoin: miter; stroke-miterlimit: 4; fill: rgb(145,233,233); fill-rule: nonzero; opacity: 1;" vector-effect="non-scaling-stroke"  transform=" translate(0, 0)" d="M 0 -56.98006 C 31.45299 -56.98006 56.98006 -31.452990000000003 56.98006 0 C 56.98006 31.45299 31.452990000000003 56.98006 0 56.98006 C -31.45299 56.98006 -56.98006 31.452990000000003 -56.98006 0 C -56.98006 -31.45299 -31.452990000000003 -56.98006 0 -56.98006 z" stroke-linecap="round" />
</g>
<g transform="matrix(0.1755 0 0 0.1755 223.0425392302 137.6529168271)" id="zPy3qEczSRQWjCACkrKOv"  >
<path style="stroke: rgb(234,47,132); stroke-width: 0; stroke-dasharray: none; stroke-linecap: butt; stroke-dashoffset: 0; stroke-linejoin: miter; stroke-miterlimit: 4; fill: rgb(145,233,233); fill-rule: nonzero; opacity: 1;" vector-effect="non-scaling-stroke"  transform=" translate(0, 0)" d="M 0 -56.98006 C 31.45299 -56.98006 56.98006 -31.452990000000003 56.98006 0 C 56.98006 31.45299 31.452990000000003 56.98006 0 56.98006 C -31.45299 56.98006 -56.98006 31.452990000000003 -56.98006 0 C -56.98006 -31.45299 -31.452990000000003 -56.98006 0 -56.98006 z" stroke-linecap="round" />
</g>
<g transform="matrix(0.1755 0 0 0.1755 62.755288472 137.6529168271)" id="5f3SzeUKsjdRT1gUrRBh_"  >
<path style="stroke: rgb(234,47,132); stroke-width: 0; stroke-dasharray: none; stroke-linecap: butt; stroke-dashoffset: 0; stroke-linejoin: miter; stroke-miterlimit: 4; fill: rgb(145,233,233); fill-rule: nonzero; opacity: 1;" vector-effect="non-scaling-stroke"  transform=" translate(0, 0)" d="M 0 -56.98006 C 31.45299 -56.98006 56.98006 -31.452990000000003 56.98006 0 C 56.98006 31.45299 31.452990000000003 56.98006 0 56.98006 C -31.45299 56.98006 -56.98006 31.452990000000003 -56.98006 0 C -56.98006 -31.45299 -31.452990000000003 -56.98006 0 -56.98006 z" stroke-linecap="round" />
</g>
<g transform="matrix(0.1755 0 0 0.1755 281.3214281209 485.2330536714)" id="l4VfGESTmQiUOgZW2SF1Q"  >
<path style="stroke: rgb(234,47,132); stroke-width: 0; stroke-dasharray: none; stroke-linecap: butt; stroke-dashoffset: 0; stroke-linejoin: miter; stroke-miterlimit: 4; fill: rgb(145,233,233); fill-rule: nonzero; opacity: 1;" vector-effect="non-scaling-stroke"  transform=" translate(0, 0)" d="M 0 -56.98006 C 31.45299 -56.98006 56.98006 -31.452990000000003 56.98006 0 C 56.98006 31.45299 31.452990000000003 56.98006 0 56.98006 C -31.45299 56.98006 -56.98006 31.452990000000003 -56.98006 0 C -56.98006 -31.45299 -31.452990000000003 -56.98006 0 -56.98006 z" stroke-linecap="round" />
</g>
<g transform="matrix(0.1755 0 0 0.1755 10.1538466043 485.2330536714)" id="kvJhyvnBi501oWEqgFVF9"  >
<path style="stroke: rgb(234,47,132); stroke-width: 0; stroke-dasharray: none; stroke-linecap: butt; stroke-dashoffset: 0; stroke-linejoin: miter; stroke-miterlimit: 4; fill: rgb(145,233,233); fill-rule: nonzero; opacity: 1;" vector-effect="non-scaling-stroke"  transform=" translate(0, 0)" d="M 0 -56.98006 C 31.45299 -56.98006 56.98006 -31.452990000000003 56.98006 0 C 56.98006 31.45299 31.452990000000003 56.98006 0 56.98006 C -31.45299 56.98006 -56.98006 31.452990000000003 -56.98006 0 C -56.98006 -31.45299 -31.452990000000003 -56.98006 0 -56.98006 z" stroke-linecap="round" />
</g>
</svg>